<svg width="205" height="188" viewBox="0 0 205 188" fill="none" xmlns="http://www.w3.org/2000/svg">
<path d="M163.391 55.6339L130.867 65.5927L130.326 65.0801C119.813 55.097 104.675 51.5288 90.8205 55.7711C76.9658 60.0135 66.4212 71.4456 63.3002 85.6034L63.1387 86.3313L30.6149 96.2902L30.6067 94.5699C30.5239 79.4381 35.4049 64.3129 44.3361 51.9912C53.5778 39.253 66.4396 30.0749 81.5367 25.4521C96.6338 20.8294 112.43 21.2325 127.213 26.623C141.512 31.8316 154.025 41.6308 162.429 54.2146L163.385 55.6446L163.391 55.6339ZM131.54 62.7089L159.323 54.2017C151.239 42.7516 139.591 33.8482 126.339 29.024C112.08 23.8299 96.8522 23.4404 82.2946 27.898C67.737 32.3556 55.3376 41.2047 46.4316 53.4919C38.1532 64.9086 33.4892 78.8158 33.2001 92.8206L60.9831 84.3134C64.5047 69.5955 75.5949 57.7553 90.0871 53.3178C104.579 48.8802 120.406 52.4785 131.556 62.7038L131.54 62.7089Z" fill="#10005A"/>
<path d="M123.617 162.879C108.52 167.502 92.7244 167.099 77.9406 161.708C63.6416 156.5 51.1287 146.701 42.7249 134.117L41.7686 132.687L74.2923 122.728L74.8337 123.241C85.3467 133.224 100.484 136.792 114.339 132.55C128.194 128.307 138.738 116.875 141.859 102.717L142.021 101.989L174.545 92.0305L174.553 93.7508C174.636 108.883 169.755 124.008 160.823 136.329C151.584 149.076 138.722 158.254 123.633 162.874L123.617 162.879ZM45.8287 134.121C53.9121 145.572 65.5607 154.475 78.8146 159.307C93.0734 164.501 108.302 164.891 122.859 160.433C137.417 155.976 149.816 147.127 158.722 134.839C167.001 123.423 171.665 109.516 171.951 95.5025L144.168 104.01C140.655 118.725 129.565 130.565 115.064 135.005C100.564 139.445 84.7456 135.845 73.5952 125.619L45.8287 134.121Z" fill="#10005A"/>
<path d="M189.738 90.0563L28.1241 139.543L15.4138 98.2668L177.093 48.7605L189.738 90.0563Z" fill="#10005A"/>
<path d="M27.7642 111.213L27.2457 112.265C26.9259 112.943 26.107 113.363 25.3315 113.021C24.4575 112.619 24.3649 111.674 24.7092 110.988L26.6688 107.023C26.9887 106.345 27.2518 106.095 27.7586 105.94C28.6005 105.682 29.2286 106.186 29.431 106.847L34.7914 124.353C35.0487 125.193 34.7705 125.832 33.806 126.127C32.8414 126.423 32.3023 126.034 32.0449 125.194L27.7667 111.222L27.7642 111.213Z" fill="white"/>
<path d="M34.1659 108.646C33.4187 106.206 34.7446 103.791 37.7526 102.87C40.7606 101.949 43.1513 103.217 43.901 105.665L47.507 117.442C48.2542 119.882 46.8718 122.287 43.9701 123.175C41.0683 124.064 38.5141 122.847 37.7719 120.423L34.1659 108.646ZM41.13 106.514C40.8177 105.493 39.7718 105.26 38.5947 105.621C37.4177 105.981 36.6252 106.75 36.945 107.795L40.5511 119.572C40.8709 120.616 41.9093 120.825 43.1354 120.45C44.3615 120.074 45.0484 119.31 44.7361 118.29L41.13 106.514Z" fill="white"/>
<path d="M47.2196 104.649C46.4724 102.209 47.7983 99.7943 50.8063 98.8732C53.8143 97.9522 56.205 99.2197 56.9547 101.668L60.5607 113.445C61.3079 115.885 59.9255 118.29 57.0238 119.178C54.1221 120.067 51.5679 118.849 50.8257 116.426L47.2196 104.649ZM54.1756 102.519C53.8632 101.499 52.8173 101.266 51.6403 101.626C50.4632 101.986 49.6707 102.756 49.9906 103.8L53.5966 115.577C53.9165 116.622 54.9549 116.83 56.1809 116.455C57.407 116.08 58.094 115.316 57.7816 114.296L54.1756 102.519Z" fill="white"/>
<path d="M59.5993 99.3855C59.0621 97.6308 59.9623 96.0162 61.8505 95.438C63.7386 94.8598 65.3886 95.6936 65.9259 97.4483L67.1654 101.496C67.7027 103.251 66.7779 104.873 64.9142 105.444C63.0506 106.014 61.3761 105.188 60.8388 103.433L59.5993 99.3855ZM70.5239 93.2821C70.7132 92.5278 71.4756 92.098 72.3837 92.4359C73.4525 92.8316 73.4921 93.5158 73.3356 94.26L68.3708 115.097C68.1815 115.851 67.5478 116.322 66.494 115.975C65.5382 115.598 65.4271 114.856 65.5993 114.134L70.5321 93.2796L70.5239 93.2821ZM63.1123 102.478C63.2597 102.96 63.6571 103.177 64.172 103.02C64.687 102.862 64.8795 102.41 64.7095 101.855L63.6975 98.5501C63.5175 97.9625 63.1076 97.7042 62.5927 97.8619C62.0777 98.0196 61.8853 98.4713 62.0627 99.0507L63.1148 102.487L63.1123 102.478ZM71.5236 106.999C70.9863 105.245 71.8866 103.63 73.7747 103.052C75.6629 102.474 77.3129 103.308 77.8502 105.062L79.0897 109.11C79.6269 110.865 78.7021 112.487 76.8385 113.058C74.9749 113.628 73.3004 112.802 72.7631 111.047L71.5236 106.999ZM75.0308 110.103C75.1783 110.585 75.5757 110.802 76.0906 110.644C76.6056 110.487 76.7981 110.035 76.6281 109.48L75.616 106.175C75.4361 105.587 75.0262 105.329 74.5113 105.486C73.9963 105.644 73.8038 106.096 73.9813 106.675L75.0333 110.111L75.0308 110.103Z" fill="white"/>
<path d="M89.4099 87.2225C90.1782 86.9872 90.978 87.4386 91.2029 88.1731C91.4278 88.9076 91.0022 89.7074 90.2421 89.9402L85.6565 91.3442L87.5732 97.6039L90.7856 96.6203C91.5212 96.395 92.3462 96.8119 92.5711 97.5464C92.796 98.2809 92.3459 99.0882 91.6102 99.3135L88.3979 100.297L90.547 107.316C90.7819 108.083 90.3368 108.907 89.6011 109.132C88.8655 109.357 88.033 108.916 87.8006 108.157L82.4953 90.8304C82.2604 90.0633 82.664 89.2791 83.4486 89.0389L89.4074 87.2143L89.4099 87.2225Z" fill="white"/>
<path d="M93.724 87.2673C93.4891 86.5001 93.9587 85.669 94.6698 85.4512C95.381 85.2335 96.2625 85.6598 96.4949 86.4188L101.84 103.876C102.075 104.643 101.605 105.474 100.87 105.699C100.134 105.925 99.3017 105.483 99.0693 104.724L93.724 87.2673Z" fill="white"/>
<path d="M105.112 90.0644L108.688 101.743C108.923 102.51 108.527 103.319 107.84 103.529C107.203 103.724 106.395 103.275 106.162 102.516L100.795 84.9862C100.552 84.1945 100.956 83.4104 101.716 83.1776C102.28 83.0049 102.889 83.0952 103.344 83.6787L111.955 94.3962L108.371 82.693C108.146 81.9585 108.54 81.1417 109.226 80.9315C109.864 80.7362 110.672 81.1851 110.897 81.9196L116.272 99.4744C116.514 100.266 116.103 101.026 115.343 101.258C114.779 101.431 114.21 101.382 113.762 100.823L105.11 90.0562L105.112 90.0644Z" fill="white"/>
<path d="M130.16 94.6685C130.614 95.422 130.612 96.1457 129.887 96.6979C129.204 97.1837 128.277 97.164 127.816 96.3859L126.138 93.4453L121.601 94.8344L121.857 98.2105C121.91 99.1137 121.17 99.617 120.446 99.6157C119.534 99.645 119.015 98.8575 118.978 98.0924L117.832 79.5191C117.785 78.8105 118.283 78.1582 118.92 77.963C119.607 77.7528 120.367 78.0466 120.725 78.6601L130.168 94.666L130.16 94.6685ZM121.414 91.9459L124.675 90.9473L120.859 84.3231L121.406 91.9485L121.414 91.9459Z" fill="white"/>
<path d="M132.126 81.7924L135.702 93.4711C135.937 94.2383 135.541 95.0469 134.855 95.2571C134.217 95.4524 133.409 95.0035 133.177 94.2445L127.809 76.7142C127.567 75.9225 127.97 75.1384 128.73 74.9056C129.294 74.7329 129.903 74.8233 130.359 75.4067L138.969 86.1242L135.385 74.421C135.16 73.6865 135.554 72.8697 136.241 72.6595C136.878 72.4643 137.686 72.9131 137.911 73.6476L143.286 91.2025C143.529 91.9941 143.118 92.7538 142.358 92.9865C141.794 93.1592 141.224 93.1104 140.776 92.5514L132.124 81.7842L132.126 81.7924Z" fill="white"/>
<path d="M142.811 75.9857C141.986 73.2925 143.456 70.4414 146.357 69.5529C149.055 68.727 151.836 70.0714 152.733 73.0013C152.983 73.8174 152.582 74.6097 151.74 74.8675C151.151 75.0477 150.21 74.8629 149.922 73.9244C149.565 72.7573 148.391 72.1079 147.247 72.4583C146.103 72.8087 145.363 73.9547 145.713 75.0972L148.969 85.7313C149.304 86.8249 150.501 87.3777 151.703 87.0098C152.904 86.6419 153.458 85.4725 153.098 84.2973C152.811 83.3588 153.488 82.6515 154.069 82.4738C154.886 82.2235 155.694 82.6723 155.944 83.4885C156.841 86.4183 155.29 89.0893 152.592 89.9152C149.691 90.8037 146.864 89.2233 146.07 86.628L142.814 75.9939L142.811 75.9857Z" fill="white"/>
<path d="M167.267 82.1904C168.06 81.9476 168.9 82.4135 169.11 83.099C169.345 83.8662 168.9 84.6898 168.107 84.9326L162.116 86.7672C161.323 87.01 160.53 86.5831 160.291 85.7996L154.978 68.4488C154.743 67.6816 155.163 66.8655 155.948 66.6252L161.94 64.7907C162.732 64.5479 163.572 65.0137 163.797 65.7482C164.022 66.4827 163.58 67.3145 162.787 67.5573L158.177 68.9689L159.961 74.796L163.402 73.7424C164.138 73.5171 164.963 73.934 165.195 74.693C165.413 75.403 164.97 76.2348 164.234 76.46L160.793 77.5137L162.655 83.5939L167.265 82.1823L167.267 82.1904ZM156.443 64.8847C155.949 65.2859 155.283 65.097 154.951 64.5651C154.544 63.9667 154.786 63.4729 155.213 63.1457L158.505 60.5222C159.023 60.1135 159.681 60.1888 160.056 60.7703C160.455 61.3443 160.203 61.8945 159.801 62.2142L156.435 64.8872L156.443 64.8847Z" fill="white"/>
<path d="M179.144 78.5538C179.937 78.311 180.777 78.7769 180.987 79.4624C181.222 80.2296 180.777 81.0532 179.984 81.296L173.992 83.1306C173.199 83.3733 172.407 82.9465 172.167 82.163L166.854 64.8122C166.619 64.045 167.04 63.2289 167.825 62.9886L173.816 61.1541C174.609 60.9113 175.449 61.3771 175.674 62.1116C175.899 62.8461 175.456 63.6779 174.663 63.9207L170.053 65.3323L171.838 71.1594L175.279 70.1057C176.014 69.8805 176.839 70.2974 177.072 71.0563C177.289 71.7664 176.847 72.5982 176.111 72.8234L172.67 73.8771L174.531 79.9572L179.141 78.5456L179.144 78.5538Z" fill="white"/>
<path d="M47.6549 67.3552C47.2543 67.1565 47.0705 66.6147 47.2616 66.2169C47.4723 65.7954 48.0036 65.6327 48.4123 65.8289L56.2586 69.7016C56.8275 69.9827 57.5627 69.6683 57.9127 68.972C58.2659 68.2568 58.0743 67.4853 57.5055 67.2043L49.6592 63.3315C49.2586 63.1328 49.061 62.6042 49.266 62.1933C49.4628 61.7849 50.0079 61.6091 50.4167 61.8053L58.263 65.678C59.6329 66.3565 60.2243 68.1124 59.4271 69.7133C58.6356 71.3036 56.8793 71.9038 55.5094 71.2254L47.663 67.3527L47.6549 67.3552Z" fill="#10005A"/>
<path d="M56.3355 59.0912L62.0791 63.3667C62.4506 63.6457 62.5483 64.1693 62.302 64.5035C62.067 64.8165 61.5328 64.8819 61.1531 64.6054L52.5353 58.1839C52.1506 57.8911 52.0578 57.3839 52.3457 57.0101C52.5473 56.7341 52.8706 56.5637 53.292 56.6846L61.0806 58.7629L55.3264 54.4817C54.9656 54.2083 54.8703 53.693 55.1141 53.3505C55.3491 53.0376 55.8834 52.9722 56.2442 53.2455L64.8727 59.6727C65.2574 59.9655 65.3369 60.4589 65.0516 60.8409C64.85 61.1168 64.5644 61.2935 64.1561 61.1865L56.338 59.0993L56.3355 59.0912Z" fill="#10005A"/>
<path d="M69.2017 54.1607C69.5561 53.8291 70.1204 53.8616 70.402 54.1681C70.7206 54.508 70.7014 55.0584 70.347 55.39L67.6617 57.8904C67.3073 58.2221 66.7832 58.2041 66.4514 57.8504L59.1978 50.0739C58.8792 49.734 58.8846 49.1968 59.239 48.8651L61.9243 46.3647C62.2787 46.0331 62.8429 46.0656 63.1509 46.3998C63.4588 46.7339 63.4396 47.2843 63.0827 47.6078L61.0174 49.5346L63.4529 52.1452L64.9976 50.7081C65.3324 50.4003 65.8703 50.4052 66.1915 50.7532C66.4862 51.0735 66.467 51.6239 66.1403 51.9293L64.5956 53.3663L67.1364 56.0875L69.2017 54.1607Z" fill="#10005A"/>
<path d="M72.8355 48.7724C73.1783 48.5782 73.7696 48.6114 74.0151 49.0628C74.4092 49.7366 75.1622 50.0059 75.807 49.63C76.4298 49.2697 76.5806 48.5361 76.2254 47.9308L75.9379 47.4297C75.562 46.786 74.7693 46.5914 74.0838 46.5424L72.7725 46.4351C71.5636 46.3411 70.4364 45.9008 69.7654 44.7315L69.5762 44.4056C68.7029 42.8967 69.0982 41.151 70.6237 40.2644C72.0448 39.4454 73.728 39.9208 74.7324 41.5949C74.9629 41.9975 74.8526 42.5133 74.4217 42.7702C74.0871 42.9619 73.509 42.9425 73.2553 42.4936C72.8537 41.7953 72.1543 41.4382 71.5152 41.8035C70.876 42.1688 70.7415 42.8973 71.1017 43.519L71.2909 43.8449C71.633 44.4364 72.2731 44.5707 72.8775 44.6177L74.1266 44.7262C75.5133 44.8461 76.7736 45.3707 77.4552 46.5455L77.7427 47.0466C78.5904 48.501 78.1856 50.3031 76.6903 51.1716C75.2333 52.0194 73.4576 51.5633 72.5167 49.9501C72.2861 49.5476 72.3964 49.0318 72.8273 48.7749L72.8355 48.7724Z" fill="#10005A"/>
<path d="M77.0513 40.1171C76.4739 38.6693 77.1896 36.9773 78.8881 36.3054C80.5867 35.6336 82.2714 36.3763 82.8488 37.8242L85.338 44.1138C85.8947 45.5233 85.1734 47.226 83.4748 47.8979C81.7763 48.5697 80.0948 47.8081 79.5405 46.4068L77.0513 40.1171ZM81.2685 38.4151C81.0321 37.8181 80.2464 37.5588 79.5062 37.8568C78.7635 38.1467 78.3777 38.8719 78.6141 39.4689L81.1133 45.7913C81.3522 46.3965 82.1493 46.6345 82.8674 46.3521C83.6101 46.0622 84.0173 45.3484 83.7759 44.735L81.2767 38.4126L81.2685 38.4151Z" fill="#10005A"/>
<path d="M85.6497 34.9134C85.5368 34.457 85.8135 33.9884 86.2517 33.8721C86.6899 33.7558 87.1614 34.0399 87.2825 34.4938L89.7131 43.9792L92.0261 43.387C92.4831 43.2738 92.9357 43.5548 93.0468 43.976C93.1629 44.4136 92.8969 44.8878 92.4398 45.001L89.3076 45.8083C88.8506 45.9215 88.3948 45.6593 88.2819 45.203L85.6415 34.9159L85.6497 34.9134Z" fill="#10005A"/>
<path d="M93.2045 33.1625C93.1563 32.713 93.5109 32.2653 93.9421 32.2136C94.4085 32.16 94.8402 32.5188 94.8884 32.9682L95.8682 41.6571C95.9387 42.2961 96.6009 42.736 97.379 42.6495C98.1735 42.558 98.7206 41.9798 98.642 41.3434L97.6622 32.6545C97.614 32.2051 97.9522 31.7623 98.3997 31.7056C98.8473 31.6489 99.2978 32.0108 99.346 32.4602L100.326 41.1491C100.496 42.6681 99.3377 44.1118 97.5589 44.3172C95.7883 44.5202 94.3438 43.3647 94.1737 41.8457L93.1939 33.1568L93.2045 33.1625Z" fill="#10005A"/>
<path d="M104.571 33.2616L103.091 33.1881C102.619 33.1631 102.253 32.7574 102.275 32.3043C102.298 31.8511 102.704 31.4856 103.174 31.5024L107.838 31.7257C108.31 31.7507 108.676 32.1564 108.654 32.6096C108.632 33.0627 108.225 33.4282 107.755 33.4114L106.286 33.3435L105.803 43.2122C105.78 43.6923 105.341 44.0679 104.887 44.0461C104.452 44.0275 104.068 43.6186 104.088 43.1303L104.571 33.2616Z" fill="#10005A"/>
<path d="M111.442 33.1035C111.524 32.6411 111.992 32.3283 112.417 32.4034C112.861 32.4816 113.196 32.9326 113.114 33.3951L111.263 43.9328C111.181 44.3952 110.713 44.708 110.269 44.6297C109.836 44.5572 109.509 44.1037 109.591 43.6413L111.442 33.1035Z" fill="#10005A"/>
<path d="M116.222 36.0408C116.708 34.5619 118.332 33.7074 120.07 34.2732C121.808 34.839 122.626 36.4898 122.141 37.9686L120.033 44.3984C119.561 45.8371 117.92 46.6966 116.182 46.1308C114.445 45.5649 113.643 43.9092 114.114 42.4705L116.222 36.0408ZM120.551 37.4199C120.75 36.8144 120.311 36.1098 119.546 35.8618C118.79 35.6113 118.028 35.9251 117.829 36.5305L115.712 42.9898C115.51 43.6141 115.971 44.303 116.698 44.5447C117.454 44.7952 118.221 44.4978 118.426 43.8816L120.543 37.4224L120.551 37.4199Z" fill="#10005A"/>
<path d="M126.105 41.5127L122.697 47.8138C122.473 48.2216 121.974 48.4012 121.6 48.2032C121.256 48.014 121.115 47.4948 121.339 47.0871L126.453 37.63C126.68 37.2034 127.177 37.0426 127.593 37.2633C127.894 37.4299 128.108 37.7213 128.052 38.1492L127.113 46.1491L130.527 39.8373C130.745 39.4402 131.247 39.2687 131.612 39.4693C131.956 39.6585 132.097 40.1777 131.887 40.5722L126.767 50.04C126.54 50.4665 126.047 50.6086 125.639 50.3854C125.337 50.2188 125.117 49.965 125.168 49.5477L126.105 41.5127Z" fill="#10005A"/>
<path d="M74.8067 134.889C75.9594 135.821 76.1375 137.454 75.2476 138.548L73.6296 140.534C72.7397 141.627 71.0765 141.86 69.9081 140.906L68.8137 140.018L66.4677 142.896C66.1692 143.264 65.6218 143.316 65.2748 143.029C64.9196 142.745 64.8684 142.199 65.1588 141.833L71.8706 133.592C72.1691 133.224 72.6895 133.172 73.0579 133.469L74.8042 134.881L74.8067 134.889ZM73.9059 137.494C74.2069 137.134 74.1226 136.509 73.7411 136.197L72.6467 135.309L69.8655 138.723L70.9599 139.611C71.3866 139.953 71.9837 139.859 72.3075 139.457L73.9059 137.494Z" fill="#10005A"/>
<path d="M77.111 149.947C76.9473 150.435 76.6295 150.711 76.1075 150.612C75.6263 150.5 75.2827 150.079 75.4495 149.572L76.102 147.703L73.7487 146.237L72.3562 147.645C71.9791 148.02 71.4716 147.88 71.1956 147.563C70.835 147.174 70.9836 146.637 71.3078 146.324L79.0862 138.675C79.3802 138.38 79.8623 138.349 80.195 138.559C80.549 138.781 80.7134 139.23 80.5739 139.621L77.1192 149.945L77.111 149.947ZM74.9549 145.037L76.6453 146.091L78.1115 141.857L74.9524 145.029L74.9549 145.037Z" fill="#10005A"/>
<path d="M88.2775 147.466C87.8489 148.489 86.8223 149.107 85.7126 149.045L85.5675 153.535C85.5624 153.956 85.4308 154.461 84.8876 154.556C84.4363 154.658 83.8763 154.348 83.8891 153.835L84.0413 148.522L83.4982 148.295L81.75 152.455C81.5657 152.904 81.0469 153.107 80.6375 152.938C80.2067 152.758 79.9977 152.25 80.182 151.801L84.3366 141.924C84.5177 141.494 85.0095 141.289 85.451 141.476L87.5408 142.344C88.9348 142.926 89.5592 144.44 89.0215 145.72L88.28 147.474L88.2775 147.466ZM87.4265 145.066C87.6076 144.636 87.3666 144.111 86.8825 143.903L85.5714 143.358L84.1482 146.739L85.4594 147.284C85.9623 147.496 86.5039 147.25 86.6963 146.798L87.424 145.058L87.4265 145.066Z" fill="#10005A"/>
<path d="M94.4815 145.45C94.5634 144.987 95.012 144.672 95.4562 144.75C95.9003 144.828 96.2244 145.273 96.1425 145.736L94.4838 155.384L96.8421 155.787C97.3051 155.868 97.6104 156.31 97.5373 156.743C97.4586 157.187 97.0288 157.506 96.5683 157.433L93.3807 156.891C92.9177 156.81 92.6175 156.384 92.6912 155.924L94.484 145.458L94.4815 145.45Z" fill="#10005A"/>
<path d="M107.547 156.731C107.672 157.228 107.556 157.639 107.059 157.827C106.59 157.988 106.075 157.824 105.945 157.311L105.488 155.38L102.708 155.41L102.291 157.35C102.173 157.868 101.677 158.029 101.263 157.905C100.748 157.769 100.585 157.238 100.694 156.803L103.134 146.174C103.225 145.772 103.611 145.484 104.003 145.48C104.422 145.477 104.799 145.772 104.902 146.169L107.547 156.731ZM103.076 153.753L105.072 153.731L104.032 149.372L103.074 153.745L103.076 153.753Z" fill="#10005A"/>
<path d="M111.953 145.777C111.843 145.302 112.147 144.834 112.604 144.721L114.38 144.302C116.156 143.883 117.709 144.809 118.08 146.401L118.307 147.375C118.505 148.225 118.322 148.942 117.925 149.545C118.659 149.928 119.281 150.585 119.483 151.452L119.71 152.427C120.104 154.091 119.241 155.712 117.523 156.114L115.415 156.616C114.955 156.721 114.476 156.44 114.358 155.967L111.945 145.78L111.953 145.777ZM117.144 154.498C117.86 154.323 118.247 153.544 118.078 152.819L117.851 151.844C117.681 151.111 116.838 150.753 115.946 150.964L114.988 151.195L115.844 154.807L117.152 154.495L117.144 154.498ZM115.534 149.269C116.309 149.085 116.865 148.504 116.683 147.766L116.434 146.717C116.269 146.036 115.503 145.752 114.753 145.929L113.776 146.156L114.566 149.494L115.523 149.263L115.534 149.269Z" fill="#10005A"/>
<path d="M126.571 144.729C126.983 145.754 126.686 146.916 125.857 147.652L128.913 150.948C129.203 151.252 129.465 151.698 129.137 152.146C128.889 152.535 128.271 152.706 127.916 152.333L124.293 148.443L123.744 148.665L125.418 152.848C125.599 153.292 125.381 153.806 124.957 153.971C124.518 154.141 124.015 153.929 123.831 153.476L119.847 143.53C119.669 143.093 119.878 142.61 120.332 142.426L122.434 141.586C123.844 141.02 125.347 141.667 125.858 142.956L126.568 144.721L126.571 144.729ZM124.281 143.618C124.103 143.181 123.568 142.979 123.081 143.173L121.76 143.703L123.123 147.106L124.445 146.576C124.956 146.375 125.17 145.818 124.987 145.366L124.29 143.615L124.281 143.618Z" fill="#10005A"/>
<path d="M138.126 145.913C138.496 146.273 138.602 146.677 138.275 147.099C137.963 147.48 137.427 147.6 137.055 147.231L135.666 145.818L133.298 147.284L133.944 149.157C134.107 149.661 133.764 150.06 133.356 150.158C132.849 150.313 132.431 149.942 132.299 149.509L128.887 139.155C128.756 138.757 128.935 138.319 129.273 138.108C129.635 137.89 130.107 137.942 130.403 138.235L138.14 145.899L138.126 145.913ZM132.76 145.672L134.46 144.625L131.312 141.438L132.763 145.68L132.76 145.672Z" fill="#10005A"/>
<path d="M137.732 137.384L142.624 142.616C142.943 142.956 142.946 143.491 142.638 143.772C142.353 144.038 141.816 144.006 141.489 143.669L134.151 135.82C133.819 135.466 133.829 134.946 134.17 134.627C134.419 134.39 134.771 134.282 135.161 134.475L142.453 137.911L137.558 132.67C137.25 132.336 137.25 131.809 137.555 131.52C137.84 131.254 138.377 131.286 138.691 131.609L146.042 139.472C146.374 139.826 146.358 140.33 146.01 140.651C145.76 140.888 145.449 141.01 145.064 140.834L137.74 137.381L137.732 137.384Z" fill="#10005A"/>
<path d="M142.082 130.946C140.74 129.982 140.408 128.138 141.45 126.694C142.417 125.354 144.191 124.989 145.647 126.034C146.048 126.322 146.151 126.835 145.849 127.249C145.641 127.535 145.129 127.79 144.662 127.46C144.078 127.041 143.301 127.163 142.892 127.725C142.467 128.32 142.542 129.091 143.113 129.497L148.414 133.292C148.962 133.677 149.715 133.509 150.141 132.915C150.547 132.344 150.409 131.574 149.825 131.155C149.355 130.817 149.423 130.251 149.628 129.956C149.917 129.556 150.454 129.471 150.866 129.765C152.321 130.81 152.549 132.606 151.583 133.946C150.541 135.39 148.666 135.66 147.37 134.727L142.068 130.932L142.082 130.946Z" fill="#10005A"/>
<path d="M147.74 117.163L157.399 121.73C157.819 121.932 158 122.465 157.817 122.861C157.62 123.269 157.099 123.464 156.671 123.265L152.385 121.239L151.112 123.914L155.398 125.94C155.826 126.139 155.999 126.675 155.81 127.081C155.619 127.479 155.098 127.674 154.67 127.475L145.011 122.908C144.592 122.706 144.41 122.172 144.593 121.777C144.79 121.369 145.311 121.173 145.739 121.373L149.619 123.211L150.892 120.536L147.012 118.698C146.584 118.498 146.411 117.962 146.6 117.556C146.783 117.161 147.312 116.963 147.74 117.163Z" fill="#10005A"/>
<path d="M159.333 113.095C159.477 112.632 159.981 112.379 160.383 112.497C160.829 112.637 161.092 113.119 160.948 113.583L159.876 117.089C159.732 117.552 159.263 117.803 158.807 117.657L148.63 114.551C148.185 114.411 147.918 113.948 148.062 113.485L149.134 109.979C149.278 109.515 149.782 109.262 150.214 109.389C150.649 109.524 150.904 110.008 150.768 110.469L149.941 113.168L153.362 114.209L153.98 112.199C154.116 111.765 154.59 111.504 155.033 111.636C155.448 111.767 155.712 112.249 155.577 112.683L154.959 114.693L158.527 115.779L159.355 113.08L159.333 113.095Z" fill="#10005A"/>
</svg>
