<?xml version="1.0" encoding="UTF-8" standalone="no"?>
<svg
   width="740.0047"
   height="739.94501"
   viewBox="0 0 740.0047 739.94501"
   fill="none"
   version="1.1"
   id="svg18"
   sodipodi:docname="background-all.svg"
   inkscape:version="1.2 (dc2aeda, 2022-05-15)"
   xmlns:inkscape="http://www.inkscape.org/namespaces/inkscape"
   xmlns:sodipodi="http://sodipodi.sourceforge.net/DTD/sodipodi-0.dtd"
   xmlns="http://www.w3.org/2000/svg"
   xmlns:svg="http://www.w3.org/2000/svg">
  <defs
     id="defs22" />
  <sodipodi:namedview
     id="namedview20"
     pagecolor="#ffffff"
     bordercolor="#000000"
     borderopacity="0.25"
     inkscape:showpageshadow="2"
     inkscape:pageopacity="0.0"
     inkscape:pagecheckerboard="0"
     inkscape:deskcolor="#d1d1d1"
     showgrid="false"
     inkscape:zoom="0.34654919"
     inkscape:cx="233.73305"
     inkscape:cy="422.73941"
     inkscape:window-width="1632"
     inkscape:window-height="817"
     inkscape:window-x="0"
     inkscape:window-y="38"
     inkscape:window-maximized="0"
     inkscape:current-layer="svg18" />
  <path
     d="m 499.26,149.8317 c -6.234,1.6625 -12.745,2.563 -19.395,2.563 -2.009,0 -4.087,-0.0693 -6.096,-0.2771 -3.117,-0.3464 -6.096,-0.4156 -9.144,-0.4849 -1.177,0 -2.355,0 -3.602,0 -36.228,0 -71.487,11.6373 -100.372,32.6953 -24.245,17.664 -44.264,42.255 -56.456,72.18 -12.261,29.786 -15.447,61.027 -10.806,90.675 26.115,-28.955 61.443,-47.797 99.472,-53.754 -1.87,-1.663 -3.74,-3.256 -5.611,-4.849 -3.948,-3.394 -7.481,-7.066 -10.598,-11.153 -15.863,-20.919 -18.772,-49.736 -8.659,-74.673 12.4,-29.855 41.078,-46.8958 70.31,-46.8958 16.624,0 33.457,5.5418 47.519,17.3868 93.168,78.414 135.631,205.386 104.321,325.986 5.957,22.097 21.82,40.8 43.848,50.013 l 1.178,0.416 c 9.49,3.879 19.118,5.68 28.608,5.68 37.614,0 71.834,-28.47 75.159,-68.716 9.836,-119.561 -48.767,-236.974 -153.365,-300.218 -14.062,-8.658 -29.093,-16.14 -44.61,-22.582 -13.785,-5.6799 -27.777,-10.321 -41.77,-13.9923"
     fill="#78cda2"
     id="path2" />
  <path
     d="m 460.608,0 c -110.278,0 -215.5,57.42506 -274.172,154.4034 -8.659,14.0616 -16.14,29.0936 -22.582,44.6096 -5.68,13.785 -10.321,27.709 -13.923,41.77 2.216,8.174 3.048,16.764 2.355,25.561 -0.346,3.117 -0.416,6.096 -0.485,9.144 -0.762,37.475 10.875,74.05 32.696,103.975 17.663,24.244 42.254,44.263 72.179,56.455 21.128,8.659 43.017,12.815 64.491,12.815 8.797,0 17.525,-0.693 26.115,-2.009 -28.955,-26.115 -47.797,-61.443 -53.685,-99.403 -1.662,1.801 -3.255,3.741 -4.849,5.611 -3.394,3.948 -7.065,7.481 -11.152,10.598 -12.746,9.698 -28.54,14.547 -44.541,14.547 -10.183,0 -20.435,-1.939 -30.133,-5.888 C 156.026,352.724 140.787,293.083 173.413,254.36 234.579,181.627 325.392,139.8567 419.6,139.8567 c 26.53,0 53.269,3.3249 79.799,10.1827 22.097,-5.9572 40.8,-21.8201 50.013,-43.8481 l 0.416,-1.1776 C 569.085,58.048481 537.221,5.3338 486.792,1.2469 478.064,0.5542 469.405,0.2078 460.746,0.2078"
     fill="#3ea6ff"
     id="path4" />
  <path
     d="m 419.461,139.6488 c -94.208,0 -185.021,41.8392 -246.187,114.5042 -32.626,38.722 -17.387,98.433 29.509,117.828 9.698,3.949 20.02,5.888 30.133,5.888 16.001,0 31.795,-4.849 44.541,-14.546 4.087,-3.118 7.758,-6.65 11.152,-10.599 1.594,-1.939 3.187,-3.81 4.849,-5.611 -4.641,-29.647 -1.454,-60.888 10.806,-90.675 12.192,-29.924 32.142,-54.446 56.456,-72.179 28.955,-21.128 64.144,-32.6957 100.372,-32.6957 1.178,0 2.355,0 3.602,0 2.979,0 6.027,0.1385 9.144,0.4849 2.009,0.1385 4.087,0.2771 6.096,0.2771 6.65,0 13.161,-0.9005 19.395,-2.563 -26.461,-6.8578 -53.268,-10.1828 -79.799,-10.1828"
     fill="#1d85a2"
     id="path6" />
  <path
     d="m 76.226997,184.744 c -37.6137,0 -71.8332497,28.401 -75.1582197,68.647 -9.83638,119.56 48.7663197,236.973 153.3642227,300.217 14.062,8.659 29.094,16.14 44.61,22.582 13.785,5.68 27.708,10.321 41.77,13.923 6.234,-1.662 12.746,-2.563 19.396,-2.563 2.009,0 4.087,0.07 6.096,0.277 3.117,0.347 6.095,0.416 9.143,0.485 1.178,0 2.355,0 3.602,0 36.229,0 71.487,-11.637 100.373,-32.695 24.245,-17.664 44.264,-42.255 56.455,-72.18 12.261,-29.786 15.448,-61.027 10.806,-90.605 -26.114,28.955 -61.442,47.796 -99.402,53.684 1.87,1.663 3.74,3.256 5.61,4.849 3.949,3.394 7.482,7.066 10.599,11.153 15.863,20.919 18.772,49.736 8.659,74.673 -12.4,29.855 -41.078,46.896 -70.31,46.896 -16.625,0 -33.457,-5.542 -47.519,-17.387 C 161.152,488.286 118.69,361.244 150,240.714 c -5.957,-22.097 -21.82,-40.8 -43.848,-49.944 l -1.178,-0.415 c -9.489903,-3.879 -19.118403,-5.68 -28.608403,-5.68"
     fill="#ff9f00"
     id="path8" />
  <path
     d="m 149.861,240.783 c -31.31,120.6 11.153,247.572 104.321,325.986 14.062,11.845 30.895,17.387 47.52,17.387 29.232,0 57.91,-17.04 70.309,-46.896 10.113,-25.006 7.204,-53.823 -8.659,-74.673 -3.117,-4.087 -6.65,-7.759 -10.598,-11.153 -1.94,-1.593 -3.81,-3.186 -5.611,-4.849 -8.59,1.316 -17.318,2.009 -26.115,2.009 -21.543,0 -43.363,-4.087 -64.491,-12.815 -29.924,-12.191 -54.446,-32.141 -72.179,-56.455 -21.82,-29.856 -33.458,-66.43 -32.696,-103.975 0,-2.978 0.139,-6.026 0.485,-9.143 0.693,-8.798 -0.138,-17.387 -2.355,-25.561"
     fill="#3e6800"
     id="path10" />
  <path
     d="m 419.046,291.42 c -8.798,0 -17.526,0.693 -26.115,2.009 28.955,26.115 47.727,61.443 53.684,99.403 1.663,-1.871 3.256,-3.741 4.849,-5.611 3.394,-3.949 7.066,-7.481 11.153,-10.599 12.745,-9.697 28.539,-14.546 44.54,-14.546 10.183,0 20.435,1.939 30.133,5.888 46.896,19.465 62.135,79.106 29.509,117.828 -61.166,72.734 -151.979,114.504 -246.186,114.504 -26.531,0 -53.339,-3.325 -79.8,-10.183 -22.097,5.958 -40.8,21.821 -50.013,43.848 l -0.416,1.178 c -19.257,46.965 12.608,99.68 63.036,103.767 8.728,0.693 17.387,1.039 26.046,1.039 110.278,0 215.5,-57.425 274.172,-154.403 8.659,-14.062 16.14,-29.094 22.582,-44.61 5.68,-13.785 10.321,-27.709 13.923,-41.77 -2.216,-8.174 -3.048,-16.764 -2.286,-25.492 0.347,-3.117 0.416,-6.096 0.485,-9.144 0.762,-37.475 -10.875,-74.05 -32.695,-103.974 -17.664,-24.245 -42.255,-44.264 -72.18,-56.456 -21.127,-8.658 -43.017,-12.815 -64.491,-12.815"
     fill="#8a41b3"
     id="path12" />
  <path
     d="m 438.303,155.8581 c -29.232,0 -57.91,17.0409 -70.31,46.8959 -10.113,25.007 -7.204,53.823 8.659,74.673 3.117,4.087 6.65,7.759 10.598,11.153 1.94,1.593 3.81,3.186 5.611,4.849 8.59,-1.316 17.318,-2.009 26.115,-2.009 21.543,0 43.363,4.087 64.491,12.815 29.925,12.192 54.446,32.141 72.179,56.455 21.821,29.856 33.458,66.43 32.696,103.975 0,2.979 -0.139,6.026 -0.485,9.144 -0.693,8.728 0.139,17.386 2.286,25.491 C 621.384,378.77 578.99,251.728 485.822,173.314 471.76,161.469 454.927,155.9274 438.303,155.9274"
     fill="#413472"
     id="path14" />
  <path
     d="m 507.157,362.076 c -16.001,0 -31.795,4.849 -44.54,14.546 -4.087,3.118 -7.759,6.65 -11.153,10.599 -1.593,1.939 -3.186,3.81 -4.849,5.611 4.641,29.647 1.455,60.888 -10.806,90.605 -12.192,29.925 -32.141,54.447 -56.455,72.18 -28.955,21.127 -64.145,32.695 -100.373,32.695 -1.178,0 -2.355,0 -3.602,0 -2.979,0 -6.026,-0.138 -9.144,-0.485 -2.008,-0.138 -4.087,-0.277 -6.095,-0.277 -6.65,0 -13.162,0.901 -19.396,2.563 26.461,6.858 53.269,10.183 79.799,10.183 94.208,0 185.021,-41.839 246.187,-114.504 32.626,-38.722 17.387,-98.433 -29.509,-117.828 -9.698,-3.949 -19.95,-5.888 -30.133,-5.888"
     fill="#8a2900"
     id="path16" />
</svg>
