<svg width="323" height="51" viewBox="0 0 323 51" fill="none" xmlns="http://www.w3.org/2000/svg">
<rect width="323" height="51" rx="25" fill="url(#paint0_linear_119_4270)"/>
<path d="M34.9377 28.277V27.478L37.4877 27.036V28.141C37.4877 29.212 38.1677 29.705 38.9497 29.705C39.8337 29.705 40.3607 29.059 40.3607 28.158V19.947H43.0467V28.226C43.0467 30.419 41.3637 32.255 38.9667 32.255C36.5867 32.255 34.9377 30.674 34.9377 28.277ZM44.7868 21.171C44.7868 20.457 45.3818 19.862 46.2488 19.862C47.2688 19.862 47.8298 20.695 47.8298 21.579C47.8298 23.925 46.1638 24.758 45.0418 24.843V23.687C45.6368 23.619 46.4188 23.177 46.4868 22.378C46.4868 22.395 46.2828 22.463 46.1128 22.463C45.2628 22.463 44.7868 21.902 44.7868 21.171ZM48.4581 29.671C48.4581 28.175 49.5631 27.325 50.9571 27.121L52.9461 26.815C53.4051 26.747 53.5581 26.526 53.5581 26.237C53.5581 25.744 53.1331 25.319 52.3171 25.319C51.4161 25.319 50.9231 25.931 50.8721 26.56L48.6281 26.101C48.7301 24.894 49.8521 23.296 52.3341 23.296C55.0711 23.296 56.0741 24.826 56.0741 26.56V30.691C56.0741 31.354 56.1591 31.915 56.1761 32H53.8471C53.8301 31.932 53.7621 31.626 53.7621 31.048C53.3201 31.762 52.5041 32.238 51.3821 32.238C49.5291 32.238 48.4581 31.014 48.4581 29.671ZM52.0111 30.368C52.7761 30.368 53.5581 29.994 53.5581 28.685V28.311L51.9601 28.566C51.4161 28.651 51.0081 28.906 51.0081 29.501C51.0081 29.943 51.2971 30.368 52.0111 30.368ZM62.0916 25.676C61.0206 25.676 60.1536 26.424 60.1536 27.784C60.1536 29.127 61.0546 29.875 62.1256 29.875C63.1286 29.875 63.6896 29.246 63.8766 28.617L66.1546 29.314C65.7806 30.793 64.3866 32.255 62.1256 32.255C59.6096 32.255 57.5866 30.402 57.5866 27.784C57.5866 25.149 59.5586 23.296 62.0406 23.296C64.3696 23.296 65.7296 24.724 66.1036 26.237L63.7916 26.934C63.6046 26.288 63.0946 25.676 62.0916 25.676ZM70.8219 21.086V23.551H72.4709V25.812H70.8219V28.974C70.8219 29.671 71.1959 29.858 71.7569 29.858C72.0289 29.858 72.2839 29.807 72.4369 29.773V31.915C72.3349 31.966 71.9099 32.153 71.0939 32.153C69.3429 32.153 68.2719 31.116 68.2719 29.433V25.812H66.7759V23.551H67.2009C68.0849 23.551 68.5099 22.956 68.5099 22.174V21.086H70.8219ZM76.8861 32H74.3021V23.551H76.8861V32ZM74.0811 20.967C74.0811 20.134 74.7611 19.454 75.5771 19.454C76.4271 19.454 77.1071 20.134 77.1071 20.967C77.1071 21.8 76.4271 22.48 75.5771 22.48C74.7611 22.48 74.0811 21.8 74.0811 20.967ZM87.4627 23.551L84.2497 32H81.6487L78.1807 23.551H80.9857L82.9407 28.804L84.7427 23.551H87.4627ZM90.4846 26.764H93.8676C93.8336 26.118 93.3916 25.336 92.1676 25.336C91.0796 25.336 90.5356 26.135 90.4846 26.764ZM94.0546 28.957L96.2136 29.569C95.8056 31.031 94.4626 32.255 92.3206 32.255C89.9916 32.255 87.9176 30.589 87.9176 27.75C87.9176 25.03 89.9406 23.296 92.1336 23.296C94.7516 23.296 96.3666 24.911 96.3666 27.631C96.3666 27.988 96.3326 28.379 96.3156 28.43H90.4336C90.4846 29.382 91.3516 30.062 92.3546 30.062C93.2896 30.062 93.8166 29.62 94.0546 28.957ZM104.793 32H102.209V23.551H104.674V24.52C105.099 23.772 106.187 23.296 107.105 23.296C108.312 23.296 109.179 23.789 109.604 24.622C110.267 23.67 111.083 23.296 112.222 23.296C113.82 23.296 115.35 24.231 115.35 26.526V32H112.851V27.104C112.851 26.305 112.426 25.676 111.508 25.676C110.59 25.676 110.097 26.373 110.097 27.121V32H107.547V27.104C107.547 26.305 107.122 25.676 106.187 25.676C105.286 25.676 104.793 26.373 104.793 27.138V32ZM121.409 29.875C122.395 29.875 123.313 29.195 123.313 27.767C123.313 26.339 122.395 25.676 121.409 25.676C120.44 25.676 119.505 26.339 119.505 27.767C119.505 29.178 120.44 29.875 121.409 29.875ZM121.409 23.296C123.942 23.296 125.897 25.149 125.897 27.767C125.897 30.385 123.942 32.255 121.409 32.255C118.893 32.255 116.921 30.385 116.921 27.767C116.921 25.149 118.893 23.296 121.409 23.296ZM130.144 27.155V32H127.56V23.551H130.059V24.52C130.518 23.721 131.555 23.33 132.422 23.33C134.547 23.33 135.499 24.843 135.499 26.696V32H132.915V27.138C132.915 26.305 132.473 25.676 131.538 25.676C130.688 25.676 130.144 26.305 130.144 27.155ZM145.747 25.676C144.676 25.676 143.809 26.424 143.809 27.784C143.809 29.127 144.71 29.875 145.781 29.875C146.784 29.875 147.345 29.246 147.532 28.617L149.81 29.314C149.436 30.793 148.042 32.255 145.781 32.255C143.265 32.255 141.242 30.402 141.242 27.784C141.242 25.149 143.214 23.296 145.696 23.296C148.025 23.296 149.385 24.724 149.759 26.237L147.447 26.934C147.26 26.288 146.75 25.676 145.747 25.676ZM155.176 29.875C156.162 29.875 157.08 29.195 157.08 27.767C157.08 26.339 156.162 25.676 155.176 25.676C154.207 25.676 153.272 26.339 153.272 27.767C153.272 29.178 154.207 29.875 155.176 29.875ZM155.176 23.296C157.709 23.296 159.664 25.149 159.664 27.767C159.664 30.385 157.709 32.255 155.176 32.255C152.66 32.255 150.688 30.385 150.688 27.767C150.688 25.149 152.66 23.296 155.176 23.296ZM163.911 32H161.327V23.551H163.792V24.52C164.217 23.772 165.305 23.296 166.223 23.296C167.43 23.296 168.297 23.789 168.722 24.622C169.385 23.67 170.201 23.296 171.34 23.296C172.938 23.296 174.468 24.231 174.468 26.526V32H171.969V27.104C171.969 26.305 171.544 25.676 170.626 25.676C169.708 25.676 169.215 26.373 169.215 27.121V32H166.665V27.104C166.665 26.305 166.24 25.676 165.305 25.676C164.404 25.676 163.911 26.373 163.911 27.138V32ZM179.235 35.23H176.651V23.551H179.15V24.418C179.507 23.874 180.425 23.347 181.632 23.347C184.08 23.347 185.559 25.217 185.559 27.75C185.559 30.334 183.893 32.187 181.53 32.187C180.442 32.187 179.626 31.813 179.235 31.337V35.23ZM183.026 27.767C183.026 26.356 182.125 25.676 181.105 25.676C180.102 25.676 179.201 26.356 179.201 27.767C179.201 29.161 180.102 29.875 181.105 29.875C182.125 29.875 183.026 29.178 183.026 27.767ZM190.303 21.086V23.551H191.952V25.812H190.303V28.974C190.303 29.671 190.677 29.858 191.238 29.858C191.51 29.858 191.765 29.807 191.918 29.773V31.915C191.816 31.966 191.391 32.153 190.575 32.153C188.824 32.153 187.753 31.116 187.753 29.433V25.812H186.257V23.551H186.682C187.566 23.551 187.991 22.956 187.991 22.174V21.086H190.303ZM195.639 26.764H199.022C198.988 26.118 198.546 25.336 197.322 25.336C196.234 25.336 195.69 26.135 195.639 26.764ZM199.209 28.957L201.368 29.569C200.96 31.031 199.617 32.255 197.475 32.255C195.146 32.255 193.072 30.589 193.072 27.75C193.072 25.03 195.095 23.296 197.288 23.296C199.906 23.296 201.521 24.911 201.521 27.631C201.521 27.988 201.487 28.379 201.47 28.43H195.588C195.639 29.382 196.506 30.062 197.509 30.062C198.444 30.062 198.971 29.62 199.209 28.957ZM209.319 26.764H212.702C212.668 26.118 212.226 25.336 211.002 25.336C209.914 25.336 209.37 26.135 209.319 26.764ZM212.889 28.957L215.048 29.569C214.64 31.031 213.297 32.255 211.155 32.255C208.826 32.255 206.752 30.589 206.752 27.75C206.752 25.03 208.775 23.296 210.968 23.296C213.586 23.296 215.201 24.911 215.201 27.631C215.201 27.988 215.167 28.379 215.15 28.43H209.268C209.319 29.382 210.186 30.062 211.189 30.062C212.124 30.062 212.651 29.62 212.889 28.957ZM219.444 27.155V32H216.86V23.551H219.359V24.52C219.818 23.721 220.855 23.33 221.722 23.33C223.847 23.33 224.799 24.843 224.799 26.696V32H222.215V27.138C222.215 26.305 221.773 25.676 220.838 25.676C219.988 25.676 219.444 26.305 219.444 27.155ZM230.064 21.086V23.551H231.713V25.812H230.064V28.974C230.064 29.671 230.438 29.858 230.999 29.858C231.271 29.858 231.526 29.807 231.679 29.773V31.915C231.577 31.966 231.152 32.153 230.336 32.153C228.585 32.153 227.514 31.116 227.514 29.433V25.812H226.018V23.551H226.443C227.327 23.551 227.752 22.956 227.752 22.174V21.086H230.064ZM238.817 23.551V26.101C238.528 26.033 238.256 26.016 238.001 26.016C236.964 26.016 236.029 26.628 236.029 28.311V32H233.445V23.551H235.944V24.69C236.386 23.738 237.457 23.466 238.137 23.466C238.392 23.466 238.647 23.5 238.817 23.551ZM242.24 26.764H245.623C245.589 26.118 245.147 25.336 243.923 25.336C242.835 25.336 242.291 26.135 242.24 26.764ZM245.81 28.957L247.969 29.569C247.561 31.031 246.218 32.255 244.076 32.255C241.747 32.255 239.673 30.589 239.673 27.75C239.673 25.03 241.696 23.296 243.889 23.296C246.507 23.296 248.122 24.911 248.122 27.631C248.122 27.988 248.088 28.379 248.071 28.43H242.189C242.24 29.382 243.107 30.062 244.11 30.062C245.045 30.062 245.572 29.62 245.81 28.957ZM252.365 35.23H249.781V23.551H252.28V24.418C252.637 23.874 253.555 23.347 254.762 23.347C257.21 23.347 258.689 25.217 258.689 27.75C258.689 30.334 257.023 32.187 254.66 32.187C253.572 32.187 252.756 31.813 252.365 31.337V35.23ZM256.156 27.767C256.156 26.356 255.255 25.676 254.235 25.676C253.232 25.676 252.331 26.356 252.331 27.767C252.331 29.161 253.232 29.875 254.235 29.875C255.255 29.875 256.156 29.178 256.156 27.767ZM265.728 23.551V26.101C265.439 26.033 265.167 26.016 264.912 26.016C263.875 26.016 262.94 26.628 262.94 28.311V32H260.356V23.551H262.855V24.69C263.297 23.738 264.368 23.466 265.048 23.466C265.303 23.466 265.558 23.5 265.728 23.551ZM269.879 32H267.295V23.551H269.879V32ZM267.074 20.967C267.074 20.134 267.754 19.454 268.57 19.454C269.42 19.454 270.1 20.134 270.1 20.967C270.1 21.8 269.42 22.48 268.57 22.48C267.754 22.48 267.074 21.8 267.074 20.967ZM271.446 29.603L273.639 29.212C273.673 29.79 274.081 30.351 274.965 30.351C275.628 30.351 275.951 29.994 275.951 29.62C275.951 29.314 275.747 29.059 275.118 28.923L274.149 28.702C272.347 28.311 271.633 27.291 271.633 26.101C271.633 24.554 272.993 23.296 274.88 23.296C277.328 23.296 278.178 24.826 278.263 25.812L276.121 26.203C276.053 25.642 275.696 25.166 274.914 25.166C274.421 25.166 273.996 25.455 273.996 25.897C273.996 26.254 274.285 26.458 274.659 26.526L275.781 26.747C277.532 27.104 278.382 28.158 278.382 29.399C278.382 30.844 277.277 32.255 275.016 32.255C272.364 32.255 271.514 30.538 271.446 29.603ZM282 26.764H285.383C285.349 26.118 284.907 25.336 283.683 25.336C282.595 25.336 282.051 26.135 282 26.764ZM285.57 28.957L287.729 29.569C287.321 31.031 285.978 32.255 283.836 32.255C281.507 32.255 279.433 30.589 279.433 27.75C279.433 25.03 281.456 23.296 283.649 23.296C286.267 23.296 287.882 24.911 287.882 27.631C287.882 27.988 287.848 28.379 287.831 28.43H281.949C282 29.382 282.867 30.062 283.87 30.062C284.805 30.062 285.332 29.62 285.57 28.957Z" fill="white"/>
<defs>
<linearGradient id="paint0_linear_119_4270" x1="0" y1="25.5" x2="323" y2="25.5" gradientUnits="userSpaceOnUse">
<stop stop-color="#10005A"/>
<stop offset="1" stop-color="#2612E0"/>
</linearGradient>
</defs>
</svg>
