<svg width="40" height="40" viewBox="0 0 40 40" fill="none" xmlns="http://www.w3.org/2000/svg">
<path d="M27.0399 26.0982H24.266L24.2674 21.2667C24.2138 20.1643 23.9393 19.253 22.6496 19.3383C21.5288 19.4121 21.2186 20.3058 21.1646 21.2997L21.1659 26.1311H18.3921V17.0978H21.0193L21.068 17.147V18.3506L21.5075 17.7562C22.4038 16.8621 23.8 16.7144 24.9761 17.0564C26.4438 17.4828 26.8776 18.7677 27.0068 20.181L27.0399 26.0986V26.0982Z" fill="white"/>
<path d="M16.6027 17.1853H13.9189V26.1313H16.6027V17.1853Z" fill="white"/>
<path d="M15.2609 15.9928C16.1667 15.9928 16.901 15.2585 16.901 14.3527C16.901 13.4469 16.1667 12.7126 15.2609 12.7126C14.3551 12.7126 13.6208 13.4469 13.6208 14.3527C13.6208 15.2585 14.3551 15.9928 15.2609 15.9928Z" fill="white"/>
<circle cx="19.977" cy="19.977" r="19.477" stroke="white"/>
</svg>
