<svg width="175" height="51" viewBox="0 0 175 51" fill="none" xmlns="http://www.w3.org/2000/svg">
<rect width="175" height="51" rx="25" fill="white"/>
<path d="M38.6643 32H30.7763V19.947H33.4623V29.433H38.6643V32ZM44.1776 29.875C45.1636 29.875 46.0816 29.195 46.0816 27.767C46.0816 26.339 45.1636 25.676 44.1776 25.676C43.2086 25.676 42.2736 26.339 42.2736 27.767C42.2736 29.178 43.2086 29.875 44.1776 29.875ZM44.1776 23.296C46.7106 23.296 48.6656 25.149 48.6656 27.767C48.6656 30.385 46.7106 32.255 44.1776 32.255C41.6616 32.255 39.6896 30.385 39.6896 27.767C39.6896 25.149 41.6616 23.296 44.1776 23.296ZM49.7339 32.476L52.0119 31.83C52.1819 32.646 52.8619 33.241 53.8309 33.241C55.1229 33.241 55.9219 32.612 55.9219 31.082V30.691C55.6159 31.15 54.8849 31.643 53.6609 31.643C51.4169 31.643 49.7339 29.875 49.7339 27.529C49.7339 25.302 51.3489 23.398 53.6609 23.398C55.0379 23.398 55.7689 24.01 56.0069 24.452V23.551H58.4719V30.946C58.4719 33.377 57.1119 35.485 53.9499 35.485C51.5189 35.485 49.9719 33.989 49.7339 32.476ZM54.1369 29.399C55.1909 29.399 55.9389 28.685 55.9389 27.529C55.9389 26.373 55.1059 25.659 54.1369 25.659C53.1679 25.659 52.3179 26.373 52.3179 27.529C52.3179 28.685 53.0999 29.399 54.1369 29.399ZM64.5311 29.875C65.5171 29.875 66.4351 29.195 66.4351 27.767C66.4351 26.339 65.5171 25.676 64.5311 25.676C63.5621 25.676 62.6271 26.339 62.6271 27.767C62.6271 29.178 63.5621 29.875 64.5311 29.875ZM64.5311 23.296C67.0641 23.296 69.0191 25.149 69.0191 27.767C69.0191 30.385 67.0641 32.255 64.5311 32.255C62.0151 32.255 60.0431 30.385 60.0431 27.767C60.0431 25.149 62.0151 23.296 64.5311 23.296ZM77.7391 25.353H79.3031C80.3231 25.353 81.0201 24.758 81.0201 23.823C81.0201 22.854 80.3231 22.276 79.3031 22.276H77.7391V25.353ZM79.5751 27.665H77.7221V32H75.0361V19.947H79.5751C82.0231 19.947 83.7061 21.562 83.7061 23.806C83.7061 26.084 82.0231 27.665 79.5751 27.665ZM95.8508 32H93.0118L88.0478 24.078V32H85.3788V19.947H88.6428L93.1648 27.274V19.947H95.8508V32ZM109.579 32H107.403L107.233 30.776C106.706 31.541 105.567 32.255 103.85 32.255C100.501 32.255 97.7473 29.79 97.7473 25.982C97.7473 22.191 100.62 19.692 104.02 19.692C107.471 19.692 109.069 21.732 109.596 23.415L107.012 24.316C106.825 23.568 106.026 22.208 104.02 22.208C102.388 22.208 100.467 23.296 100.467 25.982C100.467 28.498 102.133 29.807 104.088 29.807C106.077 29.807 106.91 28.515 107.063 27.835H103.442V25.557H109.579V32Z" fill="#A325C0"/>
<g clip-path="url(#clip0_110_4153)">
<path d="M135.087 16V27.8278L138.984 23.9335L140.469 25.4698L134.017 31.9564L127.531 25.4698L129.016 23.9335L132.913 27.8278V16H135.087Z" fill="#A325C0"/>
<path d="M124.079 32.0078V34.3589C124.079 34.5309 124.321 34.8621 124.526 34.8596L143.588 34.8317C143.727 34.7841 143.922 34.4953 143.922 34.3589V32.0078H146.001V34.6438C146.001 35.7582 144.584 37.0317 143.472 36.9943L124.621 36.9975C123.478 37.0679 122.001 35.7962 122.001 34.6438V32.0078H124.08H124.079Z" fill="#A325C0"/>
</g>
<defs>
<clipPath id="clip0_110_4153">
<rect width="24" height="21" fill="white" transform="translate(122 16)"/>
</clipPath>
</defs>
</svg>
