<svg width="173" height="94" viewBox="0 0 173 94" fill="none" xmlns="http://www.w3.org/2000/svg">
<g style="mix-blend-mode:multiply">
<path d="M102.073 10.1171C101.308 9.64862 100.494 9.24048 99.6482 8.88983C92.4707 5.93518 84.4244 8.1483 79.6691 13.7961C77.897 15.8971 78.7255 19.1392 81.2715 20.194C82.6293 20.7429 84.1943 20.5849 85.3306 19.7226C85.5521 19.5559 85.7506 19.3633 85.9347 19.1478C88.4346 16.1213 92.7037 14.94 96.5241 16.5122C98.1494 17.1732 99.4843 18.2568 100.445 19.576C101.63 21.1971 102.263 23.1831 102.22 25.218C102.217 25.3819 102.214 25.5457 102.194 25.7124C102.05 27.4743 103.063 29.1269 104.703 29.811L104.766 29.834C107.318 30.8802 110.18 29.1499 110.402 26.4137C110.937 19.9267 107.755 13.5518 102.07 10.12L102.073 10.1171Z" fill="#78CDA2"/>
</g>
<g style="mix-blend-mode:multiply">
<path d="M80.3855 8.3811C79.9166 9.14563 79.5081 9.95903 79.1571 10.804C76.1998 17.9751 78.4149 26.0142 84.0677 30.7652C86.1707 32.5357 89.4156 31.7079 90.4714 29.1643C91.0209 27.8077 90.8627 26.2441 89.9996 25.1088C89.8328 24.8875 89.64 24.6892 89.4243 24.5052C86.395 22.0076 85.2127 17.7423 86.7863 13.9254C87.4479 12.3015 88.5325 10.9679 89.8529 10.0079C91.4754 8.82373 93.4632 8.19141 95.5 8.23452C95.664 8.23739 95.8279 8.24027 95.9948 8.26039C97.7583 8.4041 99.4124 7.39239 100.097 5.7541L100.12 5.69087C101.167 3.14148 99.4354 0.281668 96.6967 0.0603565C90.2039 -0.474241 83.8232 2.7046 80.3884 8.38398L80.3855 8.3811Z" fill="#3EA6FF"/>
</g>
<g style="mix-blend-mode:multiply">
<path d="M78.6479 30.0495C79.4132 30.518 80.2273 30.9262 81.0731 31.2768C88.2506 34.2315 96.2969 32.0183 101.052 26.3706C102.824 24.2696 101.996 21.0275 99.4498 19.9727C98.092 19.4237 96.527 19.5818 95.3907 20.444C95.1692 20.6107 94.9707 20.8033 94.7866 21.0189C92.2867 24.0454 88.0176 25.2267 84.1972 23.6545C82.5718 22.9934 81.237 21.9099 80.2762 20.5906C79.091 18.9696 78.4581 16.9835 78.5012 14.9486C78.5041 14.7848 78.507 14.6209 78.5271 14.4542C78.671 12.6924 77.6583 11.0397 76.0186 10.3557L75.9553 10.3327C73.4036 9.28647 70.5412 11.0167 70.3197 13.7529C69.7846 20.24 72.9663 26.6149 78.6508 30.0467L78.6479 30.0495Z" fill="#FF9F00"/>
</g>
<g style="mix-blend-mode:multiply">
<path d="M100.336 31.7884C100.805 31.0239 101.213 30.2105 101.564 29.3655C104.522 22.1944 102.306 14.1553 96.6536 9.40432C94.5507 7.63382 91.3057 8.46158 90.2499 11.0052C89.7004 12.3618 89.8587 13.9254 90.7217 15.0607C90.8885 15.282 91.0813 15.4803 91.297 15.6643C94.3263 18.1619 95.5086 22.4272 93.935 26.2441C93.2734 27.868 92.1888 29.2017 90.8684 30.1616C89.2459 31.3458 87.2581 31.9781 85.2213 31.935C85.0573 31.9321 84.8934 31.9292 84.7265 31.9091C82.9631 31.7654 81.3089 32.7771 80.6243 34.4154L80.6012 34.4786C79.5541 37.028 81.2859 39.8879 84.0246 40.1092C90.5174 40.6438 96.8981 37.4649 100.333 31.7855L100.336 31.7884Z" fill="#8A41B3"/>
</g>
<path d="M130.648 88.197V93.1751H133.767V92.264H131.618V91.1115H133.565V90.2492H131.618V89.111H133.767V88.1999H130.648V88.197ZM137.924 88.197L136.623 91.8961L135.323 88.197H134.261L136.103 93.1751H137.101L138.951 88.197H137.924ZM139.589 88.197V93.1751H142.708V92.264H140.556V91.1115H142.503V90.2492H140.556V89.111H142.708V88.1999H139.589V88.197ZM146.959 88.197V91.4909L144.885 88.197H143.677V93.1751H144.647V89.6456L146.911 93.1751H147.929V88.197H146.959ZM149.068 88.197V93.1751H152.187V92.264H150.035V91.1115H151.982V90.2492H150.035V89.111H152.187V88.1999H149.068V88.197ZM157.393 88.197L155.932 91.7926L154.436 88.197H153.159V93.1751H154.085V89.7146L155.521 93.1751H156.329L157.765 89.6859V93.1751H158.72V88.197H157.399H157.393ZM159.853 88.197V93.1751H162.972V92.264H160.823V91.1115H162.77V90.2492H160.823V89.111H162.972V88.1999H159.853V88.197ZM167.226 88.197V91.4909L165.152 88.197H163.944V93.1751H164.913V89.6456L167.177 93.1751H168.196V88.197H167.229H167.226ZM168.878 88.197V89.1168H170.451V93.1751H171.426V89.1168H173V88.197H168.875H168.878ZM132.377 86.9554L131.652 87.8464H132.509L133.528 86.9554H132.377ZM141.315 86.9554L140.59 87.8464H141.448L142.466 86.9554H141.312H141.315Z" fill="#FF9F00"/>
<path d="M127.691 87.4498H127.116V94H127.691V87.4498Z" fill="#10005A"/>
<path d="M124.549 93.1722V92.2468H122.329V88.197H121.359V93.1722H124.549ZM120.22 88.197H119.236V93.1751H120.22V88.197ZM118.267 93.1722V92.2611H116.115V91.1086H118.062V90.2463H116.115V89.1081H118.267V88.197H115.148V93.1722H118.267ZM114.253 89.3812C114.141 88.8207 113.678 88.0907 112.47 88.0907C111.529 88.0907 110.735 88.7632 110.735 89.6485C110.735 90.4015 111.247 90.9131 112.041 91.0741L112.737 91.2149C113.126 91.2925 113.342 91.5167 113.342 91.8041C113.342 92.1548 113.054 92.4163 112.533 92.4163C111.828 92.4163 111.486 91.9737 111.443 91.4822L110.545 91.7208C110.623 92.4307 111.204 93.2786 112.527 93.2786C113.687 93.2786 114.325 92.5083 114.325 91.7409C114.325 91.0396 113.842 90.4475 112.936 90.2722L112.24 90.14C111.874 90.071 111.699 89.8526 111.699 89.5795C111.699 89.249 112.007 88.9472 112.479 88.9472C113.111 88.9472 113.336 89.3754 113.385 89.6485L114.256 89.3812H114.253ZM109.763 93.1722V88.197H108.793V91.4908L106.719 88.197H105.511V93.1722H106.48V89.6427L108.744 93.1722H109.763ZM99.5475 90.6889C99.5475 92.2899 100.756 93.2786 102.105 93.2786C103.454 93.2786 104.668 92.2899 104.668 90.6889C104.668 89.088 103.46 88.0907 102.105 88.0907C100.75 88.0907 99.5475 89.0794 99.5475 90.6889ZM100.551 90.6803C100.551 89.5565 101.34 89.0248 102.105 89.0248C102.87 89.0248 103.664 89.5594 103.664 90.6803C103.664 91.8012 102.876 92.3387 102.105 92.3387C101.334 92.3387 100.551 91.8041 100.551 90.6803ZM96.7771 93.2786C98.1752 93.2786 98.8916 92.3531 99.0814 91.5886L98.1752 91.3155C98.0429 91.7783 97.6287 92.333 96.7771 92.333C95.9745 92.333 95.2323 91.7495 95.2323 90.6889C95.2323 89.5594 96.0205 89.0248 96.7656 89.0248C97.6315 89.0248 98.017 89.5508 98.135 90.0279L99.0498 89.7405C98.8542 88.9328 98.1436 88.0907 96.7656 88.0907C95.3877 88.0907 94.2312 89.1024 94.2312 90.6889C94.2312 92.2755 95.3905 93.2786 96.78 93.2786" fill="#8A41B3"/>
<path d="M91.412 87.4498H90.8367V94H91.412V87.4498Z" fill="#10005A"/>
<path d="M88.0435 93.1722V92.2611H85.8946V91.1086H87.8421V90.2463H85.8946V89.1082H88.0435V88.197H84.9251V93.1722H88.0435ZM83.7859 88.197H82.802V93.1751H83.7859V88.197ZM79.3873 90.4217V89.0392H80.1756C80.6675 89.0392 80.9552 89.3122 80.9552 89.7347C80.9552 90.1572 80.6675 90.4217 80.1756 90.4217H79.3873ZM80.8717 93.1722H81.9534L80.8861 91.1373C81.5391 90.9476 81.9448 90.4217 81.9448 89.7261C81.9448 88.861 81.3262 88.197 80.3568 88.197H78.4121V93.1722H79.3873V91.2552H79.8936L80.8717 93.1722ZM77.4426 93.1722V92.2611H75.2908V91.1086H77.2384V90.2463H75.2908V89.1082H77.4426V88.197H74.3242V93.1722H77.4426ZM73.1821 88.197H72.1983V93.1751H73.1821V88.197ZM71.062 93.1722V88.197H70.0925V91.488L68.0183 88.197H66.8101V93.1722H67.7796V89.6428L70.0436 93.1722H71.062ZM65.8406 93.1722V92.2611H63.6888V91.1086H65.6364V90.2463H63.6888V89.1082H65.8406V88.197H62.7222V93.1722H65.8406ZM65.6019 86.9554H64.4483L63.7233 87.8464H64.5806L65.599 86.9554H65.6019ZM61.7412 93.1722V90.5826H59.2528V91.4247H60.8264C60.7718 91.7754 60.4122 92.3933 59.4916 92.3933C58.6545 92.3933 57.918 91.8099 57.918 90.6861C57.918 89.5077 58.7321 88.9932 59.4859 88.9932C60.2942 88.9932 60.7085 89.5048 60.8351 89.9474L61.7614 89.6169C61.5169 88.8524 60.7919 88.0878 59.4859 88.0878C58.1798 88.0878 56.937 89.0765 56.937 90.6861C56.937 92.2956 58.082 93.2757 59.4226 93.2757C60.1734 93.2757 60.6653 92.9394 60.8897 92.6032L60.953 93.1722H61.7384H61.7412ZM56.0942 93.1722V88.197H55.1247V91.488L53.0505 88.197H51.8423V93.1722H52.8118V89.6428L55.0758 93.1722H56.0942ZM50.7031 88.197H49.7192V93.1751H50.7031V88.197Z" fill="#78CDA2"/>
<path d="M46.7589 87.4498H46.1836V94H46.7589V87.4498Z" fill="#10005A"/>
<path d="M43.3959 93.1751V92.264H41.2441V91.1115H43.1917V90.2492H41.2441V89.111H43.3959V88.1999H40.2775V93.178H43.3959V93.1751ZM37.2684 93.2843C38.3357 93.2843 39.1872 92.6319 39.1872 91.4104V88.1942H38.2177V91.3385C38.2177 91.991 37.8581 92.3359 37.2684 92.3359C36.6787 92.3359 36.3277 91.991 36.3277 91.3385V88.1942H35.3582V91.4104C35.3582 92.6319 36.2069 93.2843 37.2684 93.2843ZM30.4447 90.6832C30.4447 89.5594 31.233 89.0248 31.9982 89.0248C32.7634 89.0248 33.5574 89.5594 33.5574 90.6832C33.5574 91.0913 33.4509 91.419 33.2841 91.6748L32.5045 90.8039L31.8572 91.3586L32.6368 92.2151C32.4412 92.2985 32.2168 92.3416 31.9982 92.3416C31.233 92.3416 30.4447 91.807 30.4447 90.6832ZM29.4407 90.689C29.4407 92.2899 30.649 93.2786 31.9982 93.2786C32.4613 93.2786 32.913 93.1579 33.2985 92.9423L33.9112 93.6149L34.5499 93.0688L33.9544 92.4106C34.3341 91.9766 34.5642 91.3931 34.5642 90.689C34.5642 89.0794 33.356 88.0907 32.001 88.0907C30.6461 88.0907 29.4436 89.0794 29.4436 90.689M28.595 88.197H27.6111V93.1751H28.595V88.197ZM24.1964 90.4217V89.0392H24.9846C25.4765 89.0392 25.7642 89.3122 25.7642 89.7347C25.7642 90.1572 25.4765 90.4217 24.9846 90.4217H24.1964ZM25.6808 93.1751H26.7625L25.6952 91.1402C26.3482 90.9505 26.7538 90.4245 26.7538 89.729C26.7538 88.8639 26.1353 88.197 25.1659 88.197H23.2183V93.1751H24.1935V91.258H24.6998L25.6779 93.1751H25.6808ZM22.2488 93.1751V92.264H20.0999V91.1115H22.0474V90.2492H20.0999V89.111H22.2488V88.1999H19.1304V93.178H22.2488V93.1751ZM22.0129 86.9554H20.8593L20.1344 87.8464H20.9917L22.01 86.9554H22.0129ZM17.9912 93.1751V88.197H16.6708L15.2094 91.7926L13.7135 88.197H12.4362V93.1751H13.3625V89.7146L14.798 93.1751H15.6064L17.039 89.6859V93.1751H17.9941H17.9912ZM9.42708 93.2843C10.4944 93.2843 11.3459 92.6319 11.3459 91.4104V88.1942H10.3764V91.3385C10.3764 91.991 10.0168 92.3359 9.42708 92.3359C8.83734 92.3359 8.48637 91.991 8.48637 91.3385V88.1942H7.5169V91.4104C7.5169 92.6319 8.36555 93.2843 9.42708 93.2843ZM6.42373 93.1751V88.197H5.45426V91.4909L3.38012 88.197H2.17188V93.1751H3.14134V89.6456L5.40536 93.1751H6.42373Z" fill="#3EA6FF"/>
<path d="M2.80485 27.845C4.06487 27.845 5.69024 28.8999 5.64709 30.5611C5.64709 33.1192 7.31274 35.1081 9.75223 35.1081C12.1917 35.1081 13.6905 33.2399 13.6905 30.9664V29.0982C13.6905 26.6637 11.7832 24.8386 9.95361 23.5798L6.46121 21.1453C3.21047 18.9178 0.730698 15.7907 0.730698 11.4479V10.2292C0.730698 4.54982 4.71214 0.290291 10.4427 0.290291C15.7618 0.290291 19.7432 4.38887 19.8641 10.7178C19.8641 12.2612 18.6875 13.5173 17.0621 13.5173C15.8021 13.5173 14.217 12.5027 14.217 10.8414C14.217 8.20003 12.8332 6.05302 10.4398 6.05302C8.04631 6.05302 6.49861 7.87812 6.49861 10.2292V11.4479C6.49861 13.6782 8.00316 15.1383 9.66593 16.2362L13.0404 18.5499C16.7773 21.0246 19.4556 24.6806 19.4556 29.1011V30.9693C19.4556 36.4475 15.3533 40.8737 9.74936 40.8737C4.14542 40.8737 0 36.732 0 30.6445C0 29.1011 1.17947 27.845 2.80485 27.845Z" fill="#10005A"/>
<path d="M29.7457 2.39707C30.0707 1.13818 31.2905 0.287418 32.5074 0.287418C33.7242 0.287418 34.944 1.1353 35.269 2.39707L44.2474 37.0137C44.6502 38.5571 43.8418 40.0574 42.5818 40.4627C41.1204 40.9484 39.4145 40.1379 39.0894 38.7583L37.6683 32.5501H27.7549L26.4144 38.7583C26.0893 40.1781 24.3834 40.9484 22.9622 40.4627C21.662 40.0574 20.891 38.5571 21.2563 37.0539L29.7457 2.39707ZM28.8941 27.1955H36.4917L32.5937 9.99064L28.897 27.1955H28.8941Z" fill="#10005A"/>
<path d="M44.1381 4.06409C43.813 2.64425 44.2618 0.89962 45.9677 0.451248C47.268 0.0459886 48.9308 0.531725 49.299 2.23611L55.2683 29.1011L61.1973 2.19587C61.5656 0.531725 63.2686 -0.0373626 64.7732 0.491486C66.3957 1.10081 66.8042 2.39707 66.3957 4.02098L58.1508 38.4766C57.8258 39.8189 56.606 40.7501 55.2655 40.7501C53.9249 40.7501 52.7051 39.8591 52.3801 38.5169L44.1352 4.06409H44.1381Z" fill="#10005A"/>
<path d="M115.988 3.17309C115.988 1.6699 117.289 0.411007 118.75 0.411007C120.211 0.411007 121.512 1.6699 121.512 3.17309V37.9909C121.512 39.4912 120.211 40.7501 118.75 40.7501C117.289 40.7501 115.988 39.4912 115.988 37.9909V3.17309Z" fill="#10005A"/>
<path d="M129.644 3.41165C129.644 1.91133 130.864 0.692677 132.366 0.692677H139.719C144.595 0.692677 148.329 4.46935 148.329 8.93007V15.0607C148.329 18.5902 146.056 21.7144 142.725 22.8928L147.88 36.4475C148.369 37.7063 148.571 39.3676 147.109 40.3046C145.892 41.1582 143.818 40.9944 143.211 39.4136L137.078 23.4246H135.127V37.9938C135.127 39.4941 133.867 40.753 132.406 40.753C130.945 40.753 129.644 39.4941 129.644 37.9938V3.41165ZM135.127 17.9809H139.719C141.465 17.9809 142.805 16.6415 142.805 15.0607V8.97318C142.805 7.42975 141.428 6.17086 139.719 6.17086H135.127V17.9809Z" fill="#10005A"/>
<path d="M155.412 27.845C156.669 27.845 158.297 28.8999 158.254 30.5611C158.254 33.1192 159.919 35.1081 162.359 35.1081C164.798 35.1081 166.297 33.2399 166.297 30.9664V29.0982C166.297 26.6637 164.39 24.8386 162.56 23.5798L159.068 21.1453C155.82 18.915 153.34 15.7879 153.34 11.4479V10.2292C153.34 4.54982 157.322 0.290291 163.049 0.290291C168.371 0.290291 172.35 4.38887 172.471 10.7178C172.471 12.2612 171.294 13.5173 169.666 13.5173C168.409 13.5173 166.824 12.5027 166.824 10.8414C166.824 8.20003 165.44 6.05302 163.046 6.05302C160.653 6.05302 159.105 7.87812 159.105 10.2292V11.4479C159.105 13.6782 160.61 15.1383 162.273 16.2362L165.647 18.5499C169.384 21.0246 172.062 24.6806 172.062 29.1011V30.9693C172.062 36.4475 167.96 40.8737 162.356 40.8737C156.752 40.8737 152.607 36.732 152.607 30.6474C152.607 29.1039 153.786 27.8479 155.412 27.8479V27.845Z" fill="#10005A"/>
<path d="M1.46436 50.4447C1.46436 49.2289 2.4367 48.2546 3.65645 48.2546H9.09641C13.6072 48.2546 17.019 51.6634 17.019 55.6412V72.9696C17.019 77.0711 13.5669 80.3994 9.09641 80.3994H3.65933C2.43958 80.3994 1.46723 79.425 1.46723 78.2093V50.4476L1.46436 50.4447ZM9.09929 76.0536C11.09 76.0536 12.6348 74.6338 12.6348 72.9668V55.6383C12.6348 53.9771 11.09 52.5946 9.09929 52.5946H5.85142V76.0536H9.09929Z" fill="#10005A"/>
<path d="M24.7086 49.6744C24.9934 48.5765 26.0521 47.8465 27.1855 48.131C28.3219 48.4155 29.0986 49.5135 28.8138 50.689L27.3092 56.3684C26.9842 57.5037 25.9313 58.1561 24.8323 57.9118C23.7334 57.6675 22.8848 56.492 23.2099 55.3136L24.7115 49.6716L24.7086 49.6744Z" fill="#10005A"/>
<path d="M49.21 77.6373C49.535 78.9364 49.21 79.9913 47.9097 80.477C46.6899 80.8823 45.3493 80.4368 45.0243 79.1003L43.8879 74.0676H36.6586L35.5223 79.1003C35.1972 80.4396 33.8998 80.8449 32.8412 80.5201C31.5006 80.1522 31.095 78.7755 31.3798 77.6373L38.0021 50.0423C38.2466 48.9846 39.2621 48.2546 40.2776 48.2546C41.3737 48.2546 42.3489 49.0249 42.5934 50.0826L49.2157 77.6373H49.21ZM37.6741 69.7621H42.8724L40.2719 58.3976L37.6713 69.7621H37.6741Z" fill="#10005A"/>
<path d="M52.2679 51.2581C51.9831 50.1228 52.3916 48.7403 53.7293 48.3753C54.788 48.0505 56.0883 48.4586 56.4105 49.7951L61.1629 70.4921L65.9153 49.7951C66.2404 48.4558 67.5781 48.0074 68.8007 48.4127C70.101 48.9013 70.4232 49.9561 70.101 51.2552L63.4787 78.81C63.2342 79.8648 62.2589 80.6379 61.1629 80.6379C60.1474 80.6379 59.1319 79.905 58.8874 78.8502L52.265 51.2552L52.2679 51.2581Z" fill="#10005A"/>
<path d="M88.5094 76.0134C89.7694 76.0134 90.7849 77.0682 90.7849 78.1604C90.7849 79.3791 89.7694 80.3936 88.5094 80.3936H78.9642C77.7042 80.3936 76.729 79.4193 76.729 78.1604V50.4849C76.729 49.2663 77.7042 48.2517 78.9642 48.2517H88.5094C89.7694 48.2517 90.7849 49.3065 90.7849 50.4849C90.7849 51.6634 89.7694 52.6751 88.5094 52.6751H81.1563V61.9673H86.6395C87.8161 61.9673 88.8316 62.9416 88.8316 64.1574C88.8316 65.2927 87.8161 66.3073 86.6395 66.3073H81.1563V76.0077H88.5094V76.0134Z" fill="#10005A"/>
<path d="M101.722 59.7398V78.3673C101.722 79.5831 100.79 80.5977 99.6915 80.5977C98.676 80.5977 97.7036 79.5831 97.7036 78.3673V50.4045C97.7036 49.1456 98.6357 48.1741 99.8526 48.1741C100.75 48.1741 101.599 48.5765 102.004 49.6342L109.763 69.1125V50.4418C109.763 49.2663 110.698 48.2517 111.794 48.2517C112.809 48.2517 113.785 49.2663 113.785 50.4418V78.4421C113.785 79.701 112.85 80.6351 111.633 80.6351C110.741 80.6351 109.927 80.3074 109.518 79.2928L101.72 59.734L101.722 59.7398Z" fill="#10005A"/>
<path d="M122.734 50.5683C122.734 49.3525 123.793 48.3379 124.929 48.3379C126.066 48.3379 127.162 49.3525 127.162 50.5683V78.4076C127.162 79.6262 126.106 80.6408 124.929 80.6408C123.753 80.6408 122.734 79.6262 122.734 78.4076V50.5683Z" fill="#10005A"/>
<path d="M151.177 59.8634C151.177 62.7462 149.347 65.2582 146.626 66.2354L150.809 77.1487C151.214 78.1633 151.421 79.5055 150.199 80.2758C149.224 80.9656 147.561 80.8047 147.069 79.5458L142.075 66.6407H140.53V78.3673C140.53 79.6262 139.514 80.6408 138.338 80.6408C137.161 80.6408 136.105 79.6262 136.105 78.3673V50.4878C136.105 49.2692 137.078 48.2948 138.338 48.2948H144.229C148.168 48.2948 151.174 51.2983 151.174 54.9112V59.8634H151.177ZM146.709 54.9514C146.709 53.7328 145.61 52.7182 144.232 52.7182H140.536V62.2547H144.232C145.653 62.2547 146.709 61.1194 146.709 59.8634V54.9543V54.9514Z" fill="#10005A"/>
<path d="M159.108 70.2909C160.124 70.2909 161.424 71.1445 161.384 72.481C161.384 74.5102 162.724 76.0939 164.672 76.0939C166.619 76.0939 167.839 74.6338 167.839 72.8058V71.3055C167.839 69.3568 166.297 67.8967 164.836 66.8821L162.031 64.9363C159.43 63.1486 157.483 60.6739 157.483 57.1847V56.2103C157.483 51.6662 160.65 48.2575 165.238 48.2575C169.505 48.2575 172.675 51.5455 172.753 56.6184C172.753 57.8371 171.82 58.8517 170.52 58.8517C169.505 58.8517 168.245 58.0383 168.245 56.7018C168.245 54.5893 167.149 52.8849 165.238 52.8849C163.328 52.8849 162.071 54.345 162.071 56.2132V57.1875C162.071 58.9724 163.331 60.1077 164.631 61.0016L167.313 62.8698C170.276 64.9421 172.43 67.7789 172.43 71.3112V72.8116C172.43 77.1976 169.182 80.727 164.672 80.727C160.161 80.727 156.873 77.3988 156.873 72.5299C156.873 71.3141 157.808 70.2995 159.108 70.2995V70.2909Z" fill="#10005A"/>
<path d="M2.80485 27.845C4.06487 27.845 5.69024 28.8999 5.64709 30.5611C5.64709 33.1192 7.31274 35.1081 9.75223 35.1081C12.1917 35.1081 13.6905 33.2399 13.6905 30.9664V29.0982C13.6905 26.6637 11.7832 24.8386 9.95361 23.5798L6.46121 21.1453C3.21047 18.9178 0.730698 15.7907 0.730698 11.4479V10.2292C0.730698 4.54982 4.71214 0.290291 10.4427 0.290291C15.7618 0.290291 19.7432 4.38887 19.8641 10.7178C19.8641 12.2612 18.6875 13.5173 17.0621 13.5173C15.8021 13.5173 14.217 12.5027 14.217 10.8414C14.217 8.20003 12.8332 6.05302 10.4398 6.05302C8.04631 6.05302 6.49861 7.87812 6.49861 10.2292V11.4479C6.49861 13.6782 8.00316 15.1383 9.66593 16.2362L13.0404 18.5499C16.7773 21.0246 19.4556 24.6806 19.4556 29.1011V30.9693C19.4556 36.4475 15.3533 40.8737 9.74936 40.8737C4.14542 40.8737 0 36.732 0 30.6445C0 29.1011 1.17947 27.845 2.80485 27.845Z" fill="url(#paint0_linear_110_3121)"/>
<path d="M29.7457 2.39707C30.0707 1.13818 31.2905 0.287418 32.5074 0.287418C33.7242 0.287418 34.944 1.1353 35.269 2.39707L44.2474 37.0137C44.6502 38.5571 43.8418 40.0574 42.5818 40.4627C41.1204 40.9484 39.4145 40.1379 39.0894 38.7583L37.6683 32.5501H27.7549L26.4144 38.7583C26.0893 40.1781 24.3834 40.9484 22.9622 40.4627C21.662 40.0574 20.891 38.5571 21.2563 37.0539L29.7457 2.39707ZM28.8941 27.1955H36.4917L32.5937 9.99064L28.897 27.1955H28.8941Z" fill="url(#paint1_linear_110_3121)"/>
<path d="M44.1381 4.06409C43.813 2.64425 44.2618 0.89962 45.9677 0.451248C47.268 0.0459886 48.9308 0.531725 49.299 2.23611L55.2683 29.1011L61.1973 2.19587C61.5656 0.531725 63.2686 -0.0373626 64.7732 0.491486C66.3957 1.10081 66.8042 2.39707 66.3957 4.02098L58.1508 38.4766C57.8258 39.8189 56.606 40.7501 55.2655 40.7501C53.9249 40.7501 52.7051 39.8591 52.3801 38.5169L44.1352 4.06409H44.1381Z" fill="url(#paint2_linear_110_3121)"/>
<path d="M115.988 3.17309C115.988 1.6699 117.289 0.411007 118.75 0.411007C120.211 0.411007 121.512 1.6699 121.512 3.17309V37.9909C121.512 39.4912 120.211 40.7501 118.75 40.7501C117.289 40.7501 115.988 39.4912 115.988 37.9909V3.17309Z" fill="url(#paint3_linear_110_3121)"/>
<path d="M129.644 3.41165C129.644 1.91133 130.864 0.692677 132.366 0.692677H139.719C144.595 0.692677 148.329 4.46935 148.329 8.93007V15.0607C148.329 18.5902 146.056 21.7144 142.725 22.8928L147.88 36.4475C148.369 37.7063 148.571 39.3676 147.109 40.3046C145.892 41.1582 143.818 40.9944 143.211 39.4136L137.078 23.4246H135.127V37.9938C135.127 39.4941 133.867 40.753 132.406 40.753C130.945 40.753 129.644 39.4941 129.644 37.9938V3.41165ZM135.127 17.9809H139.719C141.465 17.9809 142.805 16.6415 142.805 15.0607V8.97318C142.805 7.42975 141.428 6.17086 139.719 6.17086H135.127V17.9809Z" fill="url(#paint4_linear_110_3121)"/>
<path d="M155.412 27.845C156.669 27.845 158.297 28.8999 158.254 30.5611C158.254 33.1192 159.919 35.1081 162.359 35.1081C164.798 35.1081 166.297 33.2399 166.297 30.9664V29.0982C166.297 26.6637 164.39 24.8386 162.56 23.5798L159.068 21.1453C155.82 18.915 153.34 15.7879 153.34 11.4479V10.2292C153.34 4.54982 157.322 0.290291 163.049 0.290291C168.371 0.290291 172.35 4.38887 172.471 10.7178C172.471 12.2612 171.294 13.5173 169.666 13.5173C168.409 13.5173 166.824 12.5027 166.824 10.8414C166.824 8.20003 165.44 6.05302 163.046 6.05302C160.653 6.05302 159.105 7.87812 159.105 10.2292V11.4479C159.105 13.6782 160.61 15.1383 162.273 16.2362L165.647 18.5499C169.384 21.0246 172.062 24.6806 172.062 29.1011V30.9693C172.062 36.4475 167.96 40.8737 162.356 40.8737C156.752 40.8737 152.607 36.732 152.607 30.6474C152.607 29.1039 153.786 27.8479 155.412 27.8479V27.845Z" fill="url(#paint5_linear_110_3121)"/>
<path d="M1.46436 50.4447C1.46436 49.2289 2.4367 48.2546 3.65645 48.2546H9.09641C13.6072 48.2546 17.019 51.6634 17.019 55.6412V72.9696C17.019 77.0711 13.5669 80.3994 9.09641 80.3994H3.65933C2.43958 80.3994 1.46723 79.425 1.46723 78.2093V50.4476L1.46436 50.4447ZM9.09929 76.0536C11.09 76.0536 12.6348 74.6338 12.6348 72.9668V55.6383C12.6348 53.9771 11.09 52.5946 9.09929 52.5946H5.85142V76.0536H9.09929Z" fill="url(#paint6_linear_110_3121)"/>
<path d="M24.7086 49.6744C24.9934 48.5765 26.0521 47.8465 27.1855 48.131C28.3219 48.4155 29.0986 49.5135 28.8138 50.689L27.3092 56.3684C26.9842 57.5037 25.9313 58.1561 24.8323 57.9118C23.7334 57.6675 22.8848 56.492 23.2099 55.3136L24.7115 49.6716L24.7086 49.6744Z" fill="url(#paint7_linear_110_3121)"/>
<path d="M49.21 77.6373C49.535 78.9364 49.21 79.9913 47.9097 80.477C46.6899 80.8823 45.3493 80.4368 45.0243 79.1003L43.8879 74.0676H36.6586L35.5223 79.1003C35.1972 80.4396 33.8998 80.8449 32.8412 80.5201C31.5006 80.1522 31.095 78.7755 31.3798 77.6373L38.0021 50.0423C38.2466 48.9846 39.2621 48.2546 40.2776 48.2546C41.3737 48.2546 42.3489 49.0249 42.5934 50.0826L49.2157 77.6373H49.21ZM37.6741 69.7621H42.8724L40.2719 58.3976L37.6713 69.7621H37.6741Z" fill="url(#paint8_linear_110_3121)"/>
<path d="M52.2679 51.2581C51.9831 50.1228 52.3916 48.7403 53.7293 48.3753C54.788 48.0505 56.0883 48.4586 56.4105 49.7951L61.1629 70.4921L65.9153 49.7951C66.2404 48.4558 67.5781 48.0074 68.8007 48.4127C70.101 48.9013 70.4232 49.9561 70.101 51.2552L63.4787 78.81C63.2342 79.8648 62.2589 80.6379 61.1629 80.6379C60.1474 80.6379 59.1319 79.905 58.8874 78.8502L52.265 51.2552L52.2679 51.2581Z" fill="url(#paint9_linear_110_3121)"/>
<path d="M88.5094 76.0134C89.7694 76.0134 90.7849 77.0682 90.7849 78.1604C90.7849 79.3791 89.7694 80.3936 88.5094 80.3936H78.9642C77.7042 80.3936 76.729 79.4193 76.729 78.1604V50.4849C76.729 49.2663 77.7042 48.2517 78.9642 48.2517H88.5094C89.7694 48.2517 90.7849 49.3065 90.7849 50.4849C90.7849 51.6634 89.7694 52.6751 88.5094 52.6751H81.1563V61.9673H86.6395C87.8161 61.9673 88.8316 62.9416 88.8316 64.1574C88.8316 65.2927 87.8161 66.3073 86.6395 66.3073H81.1563V76.0077H88.5094V76.0134Z" fill="url(#paint10_linear_110_3121)"/>
<path d="M101.722 59.7398V78.3673C101.722 79.5831 100.79 80.5977 99.6915 80.5977C98.676 80.5977 97.7036 79.5831 97.7036 78.3673V50.4045C97.7036 49.1456 98.6357 48.1741 99.8526 48.1741C100.75 48.1741 101.599 48.5765 102.004 49.6342L109.763 69.1125V50.4418C109.763 49.2663 110.698 48.2517 111.794 48.2517C112.809 48.2517 113.785 49.2663 113.785 50.4418V78.4421C113.785 79.701 112.85 80.6351 111.633 80.6351C110.741 80.6351 109.927 80.3074 109.518 79.2928L101.72 59.734L101.722 59.7398Z" fill="url(#paint11_linear_110_3121)"/>
<path d="M122.734 50.5683C122.734 49.3525 123.793 48.3379 124.929 48.3379C126.066 48.3379 127.162 49.3525 127.162 50.5683V78.4076C127.162 79.6262 126.106 80.6408 124.929 80.6408C123.753 80.6408 122.734 79.6262 122.734 78.4076V50.5683Z" fill="url(#paint12_linear_110_3121)"/>
<path d="M151.177 59.8634C151.177 62.7462 149.347 65.2582 146.626 66.2354L150.809 77.1487C151.214 78.1633 151.421 79.5055 150.199 80.2758C149.224 80.9656 147.561 80.8047 147.069 79.5458L142.075 66.6407H140.53V78.3673C140.53 79.6262 139.514 80.6408 138.338 80.6408C137.161 80.6408 136.105 79.6262 136.105 78.3673V50.4878C136.105 49.2692 137.078 48.2948 138.338 48.2948H144.229C148.168 48.2948 151.174 51.2983 151.174 54.9112V59.8634H151.177ZM146.709 54.9514C146.709 53.7328 145.61 52.7182 144.232 52.7182H140.536V62.2547H144.232C145.653 62.2547 146.709 61.1194 146.709 59.8634V54.9543V54.9514Z" fill="url(#paint13_linear_110_3121)"/>
<path d="M159.108 70.2909C160.124 70.2909 161.424 71.1445 161.384 72.481C161.384 74.5102 162.724 76.0939 164.672 76.0939C166.619 76.0939 167.839 74.6338 167.839 72.8058V71.3055C167.839 69.3568 166.297 67.8967 164.836 66.8821L162.031 64.9363C159.43 63.1486 157.483 60.6739 157.483 57.1847V56.2103C157.483 51.6662 160.65 48.2575 165.238 48.2575C169.505 48.2575 172.675 51.5455 172.753 56.6184C172.753 57.8371 171.82 58.8517 170.52 58.8517C169.505 58.8517 168.245 58.0383 168.245 56.7018C168.245 54.5893 167.149 52.8849 165.238 52.8849C163.328 52.8849 162.071 54.345 162.071 56.2132V57.1875C162.071 58.9724 163.331 60.1077 164.631 61.0016L167.313 62.8698C170.276 64.9421 172.43 67.7789 172.43 71.3112V72.8116C172.43 77.1976 169.182 80.727 164.672 80.727C160.161 80.727 156.873 77.3988 156.873 72.5299C156.873 71.3141 157.808 70.2995 159.108 70.2995V70.2909Z" fill="url(#paint14_linear_110_3121)"/>
<defs>
<linearGradient id="paint0_linear_110_3121" x1="0" y1="40.5058" x2="172.755" y2="40.5058" gradientUnits="userSpaceOnUse">
<stop stop-color="#0000AA"/>
<stop offset="0.19" stop-color="#0100A2"/>
<stop offset="0.48" stop-color="#05008D"/>
<stop offset="0.84" stop-color="#0C006B"/>
<stop offset="1" stop-color="#10005A"/>
</linearGradient>
<linearGradient id="paint1_linear_110_3121" x1="-8.8356e-05" y1="40.5058" x2="172.755" y2="40.5058" gradientUnits="userSpaceOnUse">
<stop stop-color="#0000AA"/>
<stop offset="0.19" stop-color="#0100A2"/>
<stop offset="0.48" stop-color="#05008D"/>
<stop offset="0.84" stop-color="#0C006B"/>
<stop offset="1" stop-color="#10005A"/>
</linearGradient>
<linearGradient id="paint2_linear_110_3121" x1="-7.95623e-05" y1="40.5058" x2="172.755" y2="40.5058" gradientUnits="userSpaceOnUse">
<stop stop-color="#0000AA"/>
<stop offset="0.19" stop-color="#0100A2"/>
<stop offset="0.48" stop-color="#05008D"/>
<stop offset="0.84" stop-color="#0C006B"/>
<stop offset="1" stop-color="#10005A"/>
</linearGradient>
<linearGradient id="paint3_linear_110_3121" x1="-7.20733e-05" y1="40.5058" x2="172.756" y2="40.5058" gradientUnits="userSpaceOnUse">
<stop stop-color="#0000AA"/>
<stop offset="0.19" stop-color="#0100A2"/>
<stop offset="0.48" stop-color="#05008D"/>
<stop offset="0.84" stop-color="#0C006B"/>
<stop offset="1" stop-color="#10005A"/>
</linearGradient>
<linearGradient id="paint4_linear_110_3121" x1="4.48931e-05" y1="40.5058" x2="172.755" y2="40.5058" gradientUnits="userSpaceOnUse">
<stop stop-color="#0000AA"/>
<stop offset="0.19" stop-color="#0100A2"/>
<stop offset="0.48" stop-color="#05008D"/>
<stop offset="0.84" stop-color="#0C006B"/>
<stop offset="1" stop-color="#10005A"/>
</linearGradient>
<linearGradient id="paint5_linear_110_3121" x1="-4.42981e-05" y1="40.5058" x2="172.756" y2="40.5058" gradientUnits="userSpaceOnUse">
<stop stop-color="#0000AA"/>
<stop offset="0.19" stop-color="#0100A2"/>
<stop offset="0.48" stop-color="#05008D"/>
<stop offset="0.84" stop-color="#0C006B"/>
<stop offset="1" stop-color="#10005A"/>
</linearGradient>
<linearGradient id="paint6_linear_110_3121" x1="8.23244e-05" y1="40.5058" x2="172.756" y2="40.5058" gradientUnits="userSpaceOnUse">
<stop stop-color="#0000AA"/>
<stop offset="0.19" stop-color="#0100A2"/>
<stop offset="0.48" stop-color="#05008D"/>
<stop offset="0.84" stop-color="#0C006B"/>
<stop offset="1" stop-color="#10005A"/>
</linearGradient>
<linearGradient id="paint7_linear_110_3121" x1="0.000112135" y1="40.5058" x2="172.756" y2="40.5058" gradientUnits="userSpaceOnUse">
<stop stop-color="#0000AA"/>
<stop offset="0.19" stop-color="#0100A2"/>
<stop offset="0.48" stop-color="#05008D"/>
<stop offset="0.84" stop-color="#0C006B"/>
<stop offset="1" stop-color="#10005A"/>
</linearGradient>
<linearGradient id="paint8_linear_110_3121" x1="2.89546e-05" y1="40.5058" x2="172.755" y2="40.5058" gradientUnits="userSpaceOnUse">
<stop stop-color="#0000AA"/>
<stop offset="0.19" stop-color="#0100A2"/>
<stop offset="0.48" stop-color="#05008D"/>
<stop offset="0.84" stop-color="#0C006B"/>
<stop offset="1" stop-color="#10005A"/>
</linearGradient>
<linearGradient id="paint9_linear_110_3121" x1="-3.3995e-06" y1="40.5058" x2="172.755" y2="40.5058" gradientUnits="userSpaceOnUse">
<stop stop-color="#0000AA"/>
<stop offset="0.19" stop-color="#0100A2"/>
<stop offset="0.48" stop-color="#05008D"/>
<stop offset="0.84" stop-color="#0C006B"/>
<stop offset="1" stop-color="#10005A"/>
</linearGradient>
<linearGradient id="paint10_linear_110_3121" x1="-3.69515e-05" y1="40.5058" x2="172.755" y2="40.5058" gradientUnits="userSpaceOnUse">
<stop stop-color="#0000AA"/>
<stop offset="0.19" stop-color="#0100A2"/>
<stop offset="0.48" stop-color="#05008D"/>
<stop offset="0.84" stop-color="#0C006B"/>
<stop offset="1" stop-color="#10005A"/>
</linearGradient>
<linearGradient id="paint11_linear_110_3121" x1="5.3315e-05" y1="40.5058" x2="172.756" y2="40.5058" gradientUnits="userSpaceOnUse">
<stop stop-color="#0000AA"/>
<stop offset="0.19" stop-color="#0100A2"/>
<stop offset="0.48" stop-color="#05008D"/>
<stop offset="0.84" stop-color="#0C006B"/>
<stop offset="1" stop-color="#10005A"/>
</linearGradient>
<linearGradient id="paint12_linear_110_3121" x1="0.000217811" y1="40.5058" x2="172.756" y2="40.5058" gradientUnits="userSpaceOnUse">
<stop stop-color="#0000AA"/>
<stop offset="0.19" stop-color="#0100A2"/>
<stop offset="0.48" stop-color="#05008D"/>
<stop offset="0.84" stop-color="#0C006B"/>
<stop offset="1" stop-color="#10005A"/>
</linearGradient>
<linearGradient id="paint13_linear_110_3121" x1="-6.4475e-05" y1="40.5058" x2="172.755" y2="40.5058" gradientUnits="userSpaceOnUse">
<stop stop-color="#0000AA"/>
<stop offset="0.19" stop-color="#0100A2"/>
<stop offset="0.48" stop-color="#05008D"/>
<stop offset="0.84" stop-color="#0C006B"/>
<stop offset="1" stop-color="#10005A"/>
</linearGradient>
<linearGradient id="paint14_linear_110_3121" x1="-7.86475e-05" y1="40.5058" x2="172.755" y2="40.5058" gradientUnits="userSpaceOnUse">
<stop stop-color="#0000AA"/>
<stop offset="0.19" stop-color="#0100A2"/>
<stop offset="0.48" stop-color="#05008D"/>
<stop offset="0.84" stop-color="#0C006B"/>
<stop offset="1" stop-color="#10005A"/>
</linearGradient>
</defs>
</svg>
