<svg width="232" height="126" viewBox="0 0 232 126" fill="none" xmlns="http://www.w3.org/2000/svg">
<g clip-path="url(#clip0_110_4168)">
<path d="M130.59 10.9016C130.136 11.0226 129.662 11.0881 129.177 11.0881C129.031 11.0881 128.879 11.0831 128.733 11.0679C128.506 11.0427 128.289 11.0377 128.067 11.0327C127.981 11.0327 127.895 11.0327 127.804 11.0327C125.165 11.0327 122.596 11.8794 120.492 13.4115C118.725 14.6967 117.267 16.4859 116.378 18.6632C115.485 20.8304 115.253 23.1035 115.591 25.2606C117.494 23.1539 120.068 21.783 122.838 21.3495C122.702 21.2286 122.566 21.1127 122.43 20.9967C122.142 20.7498 121.885 20.4827 121.657 20.1853C120.502 18.6632 120.29 16.5666 121.027 14.7522C121.93 12.5799 124.019 11.3401 126.149 11.3401C127.36 11.3401 128.587 11.7433 129.611 12.6051C136.399 18.3104 139.493 27.5487 137.212 36.3234C137.646 37.9311 138.801 39.2919 140.406 39.9623L140.492 39.9925C141.183 40.2747 141.885 40.4058 142.576 40.4058C145.317 40.4058 147.81 38.3343 148.052 35.4061C148.769 26.7071 144.499 18.1643 136.878 13.5627C135.854 12.9327 134.759 12.3884 133.628 11.9197C132.624 11.5064 131.605 11.1687 130.585 10.9016" fill="#78CDA2"/>
<path d="M127.774 0C119.74 0 112.074 4.17816 107.799 11.2342C107.168 12.2573 106.623 13.351 106.154 14.4799C105.74 15.4829 105.402 16.4959 105.139 17.519C105.301 18.1138 105.361 18.7387 105.311 19.3788C105.286 19.6056 105.281 19.8223 105.276 20.0441C105.22 22.7707 106.068 25.4318 107.658 27.6091C108.945 29.3731 110.736 30.8297 112.916 31.7167C114.456 32.3467 116.051 32.6491 117.615 32.6491C118.256 32.6491 118.892 32.5987 119.518 32.503C117.408 30.6029 116.035 28.0325 115.606 25.2706C115.485 25.4016 115.369 25.5427 115.253 25.6788C115.006 25.9661 114.738 26.2231 114.441 26.4499C113.512 27.1555 112.361 27.5083 111.196 27.5083C110.454 27.5083 109.707 27.3672 109 27.0799C105.584 25.6637 104.473 21.3242 106.85 18.5069C111.307 13.2149 117.923 10.1758 124.786 10.1758C126.719 10.1758 128.667 10.4177 130.6 10.9166C132.21 10.4832 133.573 9.32904 134.244 7.72632L134.274 7.64064C135.677 4.22352 133.356 0.38808 129.682 0.09072C129.046 0.04032 128.415 0.01512 127.784 0.01512" fill="#3EA6FF"/>
<path d="M124.776 10.1606C117.913 10.1606 111.297 13.2047 106.84 18.4917C104.463 21.309 105.574 25.6535 108.99 27.0647C109.697 27.352 110.449 27.4931 111.186 27.4931C112.351 27.4931 113.502 27.1403 114.431 26.4347C114.728 26.2079 114.996 25.9509 115.243 25.6636C115.359 25.5225 115.475 25.3864 115.596 25.2554C115.258 23.0982 115.49 20.8252 116.384 18.658C117.272 16.4807 118.725 14.6966 120.497 13.4063C122.606 11.8691 125.17 11.0274 127.81 11.0274C127.895 11.0274 127.981 11.0274 128.072 11.0274C128.289 11.0274 128.511 11.0375 128.738 11.0627C128.885 11.0728 129.036 11.0829 129.182 11.0829C129.667 11.0829 130.141 11.0174 130.595 10.8964C128.668 10.3974 126.714 10.1555 124.782 10.1555" fill="#1D85A2"/>
<path d="M99.7697 13.4417C97.0293 13.4417 94.5362 15.5131 94.2939 18.4413C93.5773 27.1404 97.8469 35.6832 105.467 40.2847C106.492 40.9147 107.587 41.459 108.718 41.9277C109.722 42.341 110.736 42.6787 111.761 42.9408C112.215 42.8198 112.689 42.7543 113.174 42.7543C113.32 42.7543 113.472 42.7593 113.618 42.7745C113.845 42.7997 114.062 42.8047 114.284 42.8097C114.37 42.8097 114.456 42.8097 114.547 42.8097C117.186 42.8097 119.755 41.963 121.859 40.4309C123.626 39.1457 125.084 37.3565 125.973 35.1792C126.866 33.012 127.098 30.7389 126.76 28.5869C124.857 30.6936 122.283 32.0645 119.518 32.4929C119.654 32.6138 119.79 32.7297 119.926 32.8457C120.214 33.0926 120.472 33.3597 120.699 33.6571C121.854 35.1792 122.066 37.2758 121.329 39.0902C120.426 41.2625 118.337 42.5023 116.207 42.5023C114.996 42.5023 113.769 42.0991 112.745 41.2373C105.957 35.532 102.863 26.2886 105.144 17.519C104.71 15.9112 103.555 14.5504 101.95 13.8852L101.864 13.8549C101.173 13.5727 100.471 13.4417 99.7798 13.4417" fill="#FF9F00"/>
<path d="M105.134 17.5191C102.853 26.2938 105.947 35.5321 112.735 41.2374C113.759 42.0992 114.986 42.5024 116.197 42.5024C118.327 42.5024 120.416 41.2626 121.319 39.0903C122.056 37.2709 121.844 35.1742 120.689 33.6572C120.461 33.3598 120.204 33.0927 119.916 32.8458C119.775 32.7298 119.639 32.6139 119.508 32.493C118.882 32.5887 118.246 32.6391 117.605 32.6391C116.035 32.6391 114.446 32.3418 112.906 31.7067C110.726 30.8197 108.94 29.3682 107.648 27.5991C106.058 25.4269 105.21 22.7658 105.266 20.0341C105.266 19.8174 105.276 19.5956 105.301 19.3688C105.351 18.7287 105.291 18.1038 105.129 17.509" fill="#3E6800"/>
<path d="M124.746 21.2032C124.105 21.2032 123.469 21.2536 122.843 21.3494C124.953 23.2494 126.321 25.8198 126.755 28.5818C126.876 28.4457 126.992 28.3096 127.108 28.1735C127.355 27.8862 127.623 27.6292 127.921 27.4024C128.849 26.6968 130 26.344 131.166 26.344C131.907 26.344 132.654 26.4851 133.361 26.7724C136.778 28.1886 137.888 32.5281 135.511 35.3454C131.055 40.6374 124.438 43.6766 117.575 43.6766C115.642 43.6766 113.689 43.4346 111.761 42.9357C110.151 43.3691 108.788 44.5233 108.117 46.126L108.087 46.2117C106.684 49.6288 109.005 53.4642 112.679 53.7616C113.315 53.812 113.946 53.8372 114.577 53.8372C122.611 53.8372 130.277 49.659 134.552 42.603C135.183 41.5799 135.728 40.4862 136.197 39.3573C136.611 38.3543 136.949 37.3413 137.212 36.3182C137.05 35.7234 136.99 35.0985 137.045 34.4634C137.07 34.2366 137.075 34.0199 137.08 33.7982C137.136 31.0715 136.288 28.4104 134.698 26.2331C133.411 24.4691 131.62 23.0126 129.44 22.1255C127.9 21.4955 126.306 21.1931 124.741 21.1931" fill="#8A41B3"/>
<path d="M126.154 11.3401C124.024 11.3401 121.935 12.5799 121.032 14.7522C120.295 16.5716 120.507 18.6682 121.663 20.1853C121.89 20.4826 122.147 20.7498 122.435 20.9967C122.576 21.1126 122.712 21.2286 122.844 21.3495C123.469 21.2538 124.105 21.2034 124.746 21.2034C126.316 21.2034 127.905 21.5007 129.445 22.1358C131.625 23.0228 133.411 24.4743 134.703 26.2434C136.293 28.4156 137.141 31.0767 137.086 33.8084C137.086 34.0251 137.075 34.2469 137.05 34.4737C137 35.1087 137.06 35.7387 137.217 36.3284C139.493 27.5588 136.404 18.3154 129.616 12.6102C128.592 11.7483 127.365 11.3451 126.154 11.3451" fill="#413472"/>
<path d="M131.166 26.344C130 26.344 128.849 26.6968 127.921 27.4024C127.623 27.6292 127.355 27.8862 127.108 28.1735C126.992 28.3146 126.876 28.4507 126.755 28.5818C127.093 30.7389 126.861 33.0119 125.968 35.1741C125.079 37.3514 123.626 39.1355 121.854 40.4258C119.745 41.963 117.181 42.8046 114.542 42.8046C114.456 42.8046 114.37 42.8046 114.279 42.8046C114.062 42.8046 113.84 42.7946 113.613 42.7694C113.467 42.7593 113.315 42.7492 113.169 42.7492C112.684 42.7492 112.21 42.8147 111.756 42.9357C113.684 43.4346 115.637 43.6766 117.57 43.6766C124.433 43.6766 131.05 40.6324 135.506 35.3454C137.883 32.5281 136.773 28.1836 133.356 26.7724C132.649 26.4851 131.903 26.344 131.161 26.344" fill="#8A2900"/>
<path d="M175.204 118.223V124.896H179.387V123.676H176.506V122.129H179.115V120.975H176.506V119.448H179.387V118.223H175.204ZM184.959 118.223L183.213 123.183L181.467 118.223H180.043L182.511 124.896H183.849L186.327 118.223H184.949H184.959ZM187.195 118.223V124.896H191.379V123.676H188.497V122.129H191.106V120.975H188.497V119.448H191.379V118.223H187.195ZM197.076 118.223V122.638L194.296 118.223H192.676V124.896H193.973V120.164L197.011 124.896H198.373V118.223H197.076ZM199.908 118.223V124.896H204.091V123.676H201.21V122.129H203.819V120.975H201.21V119.448H204.091V118.223H199.908ZM211.071 118.223L209.113 123.041L207.104 118.223H205.388V124.896H206.63V120.259L208.553 124.896H209.638L211.561 120.219V124.896H212.842V118.223H211.071ZM214.372 118.223V124.896H218.555V123.676H215.674V122.129H218.283V120.975H215.674V119.448H218.555V118.223H214.372ZM224.258 118.223V122.638L221.477 118.223H219.857V124.896H221.159V120.164L224.193 124.896H225.555V118.223H224.258ZM226.469 118.223V119.453H228.578V124.891H229.885V119.453H231.995V118.223H226.464H226.469ZM177.525 116.555L176.556 117.749H177.707L179.074 116.555H177.53H177.525ZM189.511 116.555L188.542 117.749H189.693L191.061 116.555H189.516H189.511Z" fill="#FF9F00"/>
<path d="M171.237 117.22H170.465V126H171.237V117.22Z" fill="white"/>
<path d="M167.023 124.891V123.651H164.045V118.223H162.748V124.896H167.028L167.023 124.891ZM161.219 118.223H159.902V124.896H161.219V118.223ZM158.6 124.891V123.672H155.718V122.129H158.327V120.975H155.718V119.448H158.6V118.223H154.416V124.896H158.6V124.891ZM153.22 119.811C153.069 119.06 152.448 118.082 150.828 118.082C149.566 118.082 148.501 118.984 148.501 120.169C148.501 121.177 149.188 121.862 150.252 122.079L151.186 122.265C151.706 122.371 151.999 122.669 151.999 123.057C151.999 123.525 151.61 123.873 150.914 123.873C149.97 123.873 149.511 123.278 149.45 122.623L148.244 122.946C148.345 123.898 149.127 125.032 150.898 125.032C152.453 125.032 153.311 123.999 153.311 122.971C153.311 122.029 152.66 121.237 151.443 121.005L150.51 120.829C150.02 120.733 149.783 120.446 149.783 120.078C149.783 119.635 150.197 119.231 150.828 119.231C151.676 119.231 151.978 119.806 152.044 120.174L153.21 119.816L153.22 119.811ZM147.199 124.891V118.218H145.897V122.633L143.116 118.218H141.496V124.891H142.798V120.159L145.831 124.891H147.199ZM133.497 121.565C133.497 123.712 135.117 125.037 136.929 125.037C138.741 125.037 140.366 123.712 140.366 121.565C140.366 119.418 138.746 118.082 136.929 118.082C135.112 118.082 133.497 119.408 133.497 121.565ZM134.845 121.555C134.845 120.048 135.899 119.332 136.929 119.332C137.958 119.332 139.023 120.048 139.023 121.555C139.023 123.062 137.969 123.777 136.929 123.777C135.889 123.777 134.845 123.062 134.845 121.555ZM129.783 125.037C131.66 125.037 132.619 123.798 132.871 122.769L131.655 122.401C131.478 123.021 130.918 123.767 129.778 123.767C128.703 123.767 127.703 122.986 127.703 121.565C127.703 120.048 128.758 119.332 129.757 119.332C130.918 119.332 131.433 120.038 131.595 120.678L132.821 120.29C132.558 119.206 131.605 118.077 129.757 118.077C127.91 118.077 126.356 119.433 126.356 121.56C126.356 123.687 127.91 125.032 129.778 125.032" fill="#8A41B3"/>
<path d="M122.586 117.22H121.814V126H122.586V117.22Z" fill="white"/>
<path d="M118.069 124.896V123.671H115.188V122.129H117.797V120.975H115.188V119.448H118.069V118.228H113.885V124.901H118.069V124.896ZM112.361 118.223H111.044V124.896H112.361V118.223ZM106.462 121.207V119.352H107.516C108.178 119.352 108.561 119.72 108.561 120.285C108.561 120.849 108.178 121.207 107.516 121.207H106.462ZM108.45 124.896H109.899L108.465 122.169C109.338 121.917 109.888 121.212 109.888 120.279C109.888 119.12 109.061 118.228 107.759 118.228H105.15V124.901H106.457V122.331H107.138L108.45 124.901V124.896ZM103.852 124.896V123.671H100.971V122.129H103.58V120.975H100.971V119.448H103.852V118.228H99.6687V124.901H103.852V124.896ZM98.1395 118.223H96.8223V124.896H98.1395V118.223ZM95.2932 124.896V118.223H93.9911V122.633L91.2103 118.223H89.5903V124.896H90.8873V120.164L93.9255 124.896H95.2881H95.2932ZM88.2933 124.896V123.671H85.4116V122.129H88.0208V120.975H85.4116V119.448H88.2933V118.228H84.1095V124.901H88.2933V124.896ZM87.9754 116.555H86.431L85.4621 117.749H86.6127L87.9804 116.555H87.9754ZM82.7974 124.896V121.424H79.4614V122.553H81.571C81.4953 123.026 81.0159 123.853 79.7794 123.853C78.659 123.853 77.6698 123.072 77.6698 121.565C77.6698 119.982 78.765 119.297 79.7693 119.297C80.8544 119.297 81.4095 119.982 81.5811 120.577L82.8276 120.133C82.4996 119.105 81.5256 118.082 79.7744 118.082C78.0231 118.082 76.3526 119.408 76.3526 121.565C76.3526 123.722 77.8869 125.037 79.6885 125.037C80.6979 125.037 81.354 124.584 81.6568 124.135L81.7426 124.896H82.7974ZM75.2222 124.896V118.223H73.9201V122.633L71.1393 118.223H69.5193V124.896H70.8163V120.164L73.8545 124.896H75.2171H75.2222ZM67.9952 118.223H66.678V124.896H67.9952V118.223Z" fill="#78CDA2"/>
<path d="M62.7062 117.22H61.9341V126H62.7062V117.22Z" fill="white"/>
<path d="M58.1943 124.896V123.671H55.3126V122.129H57.9217V120.975H55.3126V119.448H58.1943V118.223H54.0105V124.896H58.1943ZM49.9781 125.042C51.4114 125.042 52.552 124.17 52.552 122.532V118.223H51.2549V122.442C51.2549 123.319 50.7755 123.777 49.9832 123.777C49.1908 123.777 48.7215 123.314 48.7215 122.442V118.223H47.4194V122.532C47.4194 124.17 48.56 125.042 49.9832 125.042M40.8233 121.555C40.8233 120.048 41.8781 119.332 42.9076 119.332C43.9371 119.332 44.997 120.048 44.997 121.555C44.997 122.099 44.8556 122.542 44.6285 122.88L43.5839 121.711L42.7158 122.457L43.7605 123.606C43.4981 123.717 43.1953 123.777 42.9025 123.777C41.873 123.777 40.8182 123.062 40.8182 121.555M39.4808 121.565C39.4808 123.712 41.1008 125.037 42.9126 125.037C43.5334 125.037 44.139 124.876 44.6538 124.584L45.4714 125.486L46.3293 124.75L45.5319 123.868C46.0416 123.283 46.3495 122.502 46.3495 121.56C46.3495 119.403 44.7295 118.077 42.9126 118.077C41.0958 118.077 39.4808 119.403 39.4808 121.56M38.3453 118.223H37.0281V124.896H38.3453V118.223ZM32.4507 121.207V119.352H33.5055C34.1666 119.352 34.5501 119.72 34.5501 120.285C34.5501 120.849 34.1615 121.207 33.5055 121.207H32.4507ZM34.4391 124.896H35.8875L34.4543 122.169C35.3273 121.917 35.8774 121.212 35.8774 120.279C35.8774 119.12 35.0498 118.228 33.7477 118.228H31.1385V124.901H32.4456V122.331H33.1219L34.4341 124.901L34.4391 124.896ZM29.8365 124.896V123.671H26.9548V122.129H29.5639V120.975H26.9548V119.448H29.8365V118.223H25.6527V124.896H29.8365ZM29.5185 116.555H27.9742L27.0052 117.749H28.1559L29.5236 116.555H29.5185ZM24.1286 124.896V118.223H22.3571L20.394 123.041L18.3853 118.223H16.6694V124.896H17.9109V120.259L19.8338 124.896H20.9188L22.8416 120.219V124.896H24.1235H24.1286ZM12.6421 125.042C14.0754 125.042 15.216 124.17 15.216 122.532V118.223H13.9189V122.442C13.9189 123.319 13.4395 123.777 12.6472 123.777C11.8548 123.777 11.3855 123.314 11.3855 122.442V118.223H10.0834V122.532C10.0834 124.17 11.224 125.042 12.6472 125.042M8.61479 124.896V118.223H7.31777V122.638L4.537 118.223H2.91699V124.896H4.21401V120.164L7.25217 124.896H8.61479Z" fill="#3EA6FF"/>
<path d="M3.75984 37.3263C5.45051 37.3263 7.62567 38.7375 7.57015 40.9652C7.57015 44.3924 9.80587 47.0586 13.0762 47.0586C16.3465 47.0586 18.3601 44.5537 18.3601 41.5095V39.0047C18.3601 35.7387 15.8014 33.2943 13.3487 31.6059L8.6653 28.34C4.30489 25.3563 0.979073 21.1681 0.979073 15.3469V13.7139C0.979073 6.0985 6.31856 0.388184 14.0048 0.388184C21.1359 0.388184 26.4754 5.88178 26.6419 14.3691C26.6419 16.4355 25.0623 18.1189 22.8871 18.1189C21.1964 18.1189 19.0717 16.7581 19.0717 14.5304C19.0717 10.9923 17.2196 8.1145 14.0048 8.1145C10.79 8.1145 8.71577 10.5589 8.71577 13.7139V15.3469C8.71577 18.3356 10.7345 20.2962 12.9652 21.7628L17.4871 24.8624C22.4985 28.1787 26.0918 33.0776 26.0918 39.0047V41.5095C26.0918 48.8528 20.5908 54.7849 13.0762 54.7849C5.56154 54.7849 0 49.2359 0 41.0761C0 39.0097 1.58469 37.3263 3.75984 37.3263Z" fill="#10005A"/>
<path d="M39.8896 3.21562C40.3237 1.52722 41.9588 0.388184 43.594 0.388184C45.2291 0.388184 46.8643 1.52722 47.2983 3.21562L59.3399 49.6189C59.8799 51.6853 58.7948 53.6963 57.1042 54.2456C55.146 54.8958 52.8548 53.8122 52.4208 51.9625L50.5131 43.6415H37.2199L35.4232 51.9625C34.9892 53.8676 32.698 54.9008 30.7903 54.2456C29.0492 53.7013 28.0146 51.6903 28.5041 49.6743L39.8896 3.21562ZM38.7491 36.4544H48.9385L43.71 13.3914L38.7491 36.4544Z" fill="#10005A"/>
<path d="M59.1884 5.4482C58.7544 3.54308 59.355 1.20452 61.6412 0.604756C63.3823 0.0604357 65.613 0.710596 66.1076 2.99876L74.1118 39.0096L82.0655 2.94332C82.56 0.710596 84.8412 -0.0504444 86.8599 0.660196C89.0401 1.47668 89.5851 3.21548 89.0401 5.39276L77.9826 51.5793C77.5486 53.3786 75.9134 54.6285 74.1168 54.6285C72.3201 54.6285 70.685 53.434 70.251 51.6348L59.1884 5.4482Z" fill="#10005A"/>
<path d="M155.542 4.25372C155.542 2.23772 157.283 0.549316 159.246 0.549316C161.209 0.549316 162.95 2.23772 162.95 4.25372V50.9241C162.95 52.9351 161.209 54.6235 159.246 54.6235C157.283 54.6235 155.542 52.9351 155.542 50.9241V4.25372Z" fill="#10005A"/>
<path d="M173.856 4.57629C173.856 2.56533 175.491 0.932373 177.505 0.932373H187.366C193.902 0.932373 198.913 5.99757 198.913 11.975V20.1902C198.913 24.9228 195.865 29.111 191.399 30.6885L198.313 48.8577C198.969 50.5461 199.241 52.7738 197.278 54.0288C195.648 55.1729 192.867 54.9561 192.05 52.8343L183.829 31.3992H181.209V50.9292C181.209 52.9401 179.519 54.6285 177.561 54.6285C175.602 54.6285 173.856 52.9401 173.856 50.9292V4.57629ZM181.209 24.1063H187.366C189.708 24.1063 191.505 22.3121 191.505 20.1902V12.0305C191.505 9.96405 189.658 8.27565 187.366 8.27565H181.209V24.1063Z" fill="#10005A"/>
<path d="M208.411 37.3263C210.097 37.3263 212.277 38.7375 212.222 40.9651C212.222 44.3923 214.457 47.0585 217.728 47.0585C220.998 47.0585 223.012 44.5536 223.012 41.5095V39.0046C223.012 35.7387 220.453 33.2943 218 31.6059L213.317 28.3399C208.962 25.3512 205.636 21.1579 205.636 15.3418V13.7088C205.636 6.09338 210.975 0.383057 218.656 0.383057C225.793 0.383057 231.127 5.87666 231.293 14.364C231.293 16.4304 229.714 18.1138 227.534 18.1138C225.848 18.1138 223.723 16.753 223.723 14.5253C223.723 10.9872 221.871 8.10938 218.656 8.10938C215.442 8.10938 213.367 10.5538 213.367 13.7088V15.3418C213.367 18.3305 215.386 20.2911 217.617 21.7577L222.139 24.8573C227.15 28.1736 230.743 33.0725 230.743 38.9995V41.5044C230.743 48.8477 225.242 54.7798 217.728 54.7798C210.213 54.7798 204.652 49.2307 204.652 41.071C204.652 39.0046 206.236 37.3212 208.411 37.3212V37.3263Z" fill="#10005A"/>
<path d="M1.96313 67.6165C1.96313 65.9886 3.2652 64.6782 4.9054 64.6782H12.203C18.2541 64.6782 22.8265 69.2495 22.8265 74.5768V97.8061C22.8265 103.305 18.1935 107.765 12.203 107.765H4.9054C3.27025 107.765 1.96313 106.46 1.96313 104.827V67.6165ZM12.203 101.944C14.8728 101.944 16.9419 100.039 16.9419 97.8061V74.5768C16.9419 72.3491 14.8728 70.4994 12.203 70.4994H7.84767V101.944H12.203Z" fill="#10005A"/>
<path d="M33.1371 66.5886C33.5207 65.1169 34.9388 64.1391 36.4579 64.5222C37.982 64.9052 39.0217 66.3719 38.6381 67.9494L36.6194 75.5648C36.1854 77.0869 34.7723 77.9588 33.2986 77.6312C31.825 77.3036 30.6844 75.7261 31.1184 74.1486L33.1321 66.5886H33.1371Z" fill="#10005A"/>
<path d="M65.9917 104.066C66.4257 105.805 65.9917 107.221 64.2505 107.871C62.6154 108.416 60.8187 107.816 60.3847 106.027L58.8606 99.283H49.1657L47.6416 106.027C47.2076 107.821 45.4614 108.365 44.0433 107.932C42.2466 107.438 41.7016 105.593 42.0851 104.071L50.9624 67.0825C51.2904 65.6662 52.653 64.6885 54.0157 64.6885C55.4843 64.6885 56.7914 65.7217 57.1194 67.1379L65.9967 104.076L65.9917 104.066ZM50.5233 93.5122H57.4979L54.0106 78.2814L50.5233 93.5122Z" fill="#10005A"/>
<path d="M70.0895 68.7104C69.706 67.1883 70.2561 65.3336 72.0477 64.8498C73.4658 64.4163 75.212 64.9606 75.646 66.7549L82.0201 94.4951L88.3941 66.7549C88.8282 64.9606 90.6248 64.3609 92.26 64.9052C94.0011 65.5604 94.4402 66.9716 94.0011 68.7154L85.1238 105.654C84.7958 107.065 83.4887 108.103 82.0201 108.103C80.6574 108.103 79.2948 107.12 78.9668 105.709L70.0895 68.7205V68.7104Z" fill="#10005A"/>
<path d="M118.695 101.894C120.386 101.894 121.748 103.305 121.748 104.772C121.748 106.404 120.386 107.765 118.695 107.765H105.896C104.206 107.765 102.899 106.46 102.899 104.772V67.6771C102.899 66.0442 104.206 64.6833 105.896 64.6833H118.695C120.386 64.6833 121.748 66.0946 121.748 67.6771C121.748 69.2597 120.386 70.6154 118.695 70.6154H108.834V83.0693H116.187C117.766 83.0693 119.129 84.3746 119.129 86.0076C119.129 87.5297 117.766 88.8905 116.187 88.8905H108.834V101.894H118.695Z" fill="#10005A"/>
<path d="M136.414 80.0807V105.049C136.414 106.677 135.163 108.038 133.689 108.038C132.326 108.038 131.024 106.677 131.024 105.049V67.5664C131.024 65.878 132.276 64.5776 133.906 64.5776C135.107 64.5776 136.248 65.1169 136.793 66.5332L147.199 92.6454V67.6218C147.199 66.0443 148.456 64.6835 149.924 64.6835C151.287 64.6835 152.594 66.0443 152.594 67.6218V105.155C152.594 106.843 151.337 108.098 149.707 108.098C148.511 108.098 147.421 107.66 146.871 106.299L136.414 80.0807Z" fill="#10005A"/>
<path d="M164.59 67.7829C164.59 66.155 166.008 64.7942 167.538 64.7942C169.067 64.7942 170.53 66.155 170.53 67.7829V105.099C170.53 106.732 169.117 108.093 167.538 108.093C165.958 108.093 164.59 106.732 164.59 105.099V67.7829Z" fill="#10005A"/>
<path d="M202.734 80.2419C202.734 84.1025 200.281 87.4743 196.632 88.7796L202.244 103.411C202.789 104.772 203.067 106.571 201.427 107.599C200.119 108.526 197.889 108.31 197.233 106.621L190.536 89.324H188.466V105.044C188.466 106.732 187.104 108.093 185.524 108.093C183.945 108.093 182.531 106.732 182.531 105.044V67.6721C182.531 66.0392 183.834 64.7288 185.524 64.7288H193.422C198.706 64.7288 202.739 68.7557 202.739 73.5941V80.2318L202.734 80.2419ZM196.743 73.6596C196.743 72.0267 195.27 70.6659 193.422 70.6659H188.461V83.4473H193.422C195.33 83.4473 196.743 81.9252 196.743 80.2419V73.6596Z" fill="#10005A"/>
<path d="M213.372 94.2229C214.735 94.2229 216.476 95.367 216.426 97.1612C216.426 99.8828 218.222 102.005 220.837 102.005C223.451 102.005 225.086 100.049 225.086 97.5997V95.5887C225.086 92.973 223.017 91.0174 221.059 89.6566L217.299 87.0459C213.812 84.6519 211.202 81.3306 211.202 76.6534V75.3481C211.202 69.2598 215.452 64.6885 221.604 64.6885C227.327 64.6885 231.576 69.0934 231.682 75.8924C231.682 77.5254 230.431 78.8862 228.689 78.8862C227.327 78.8862 225.636 77.7975 225.636 76.0033C225.636 73.1708 224.167 70.8877 221.604 70.8877C219.04 70.8877 217.354 72.8432 217.354 75.3481V76.6534C217.354 79.0474 219.045 80.5695 220.786 81.764L224.384 84.2689C228.356 87.0459 231.248 90.8511 231.248 95.5837V97.5946C231.248 103.471 226.893 108.204 220.842 108.204C214.791 108.204 210.385 103.743 210.385 97.2166C210.385 95.5887 211.641 94.2279 213.383 94.2279L213.372 94.2229Z" fill="#10005A"/>
<path d="M3.75984 37.3263C5.45051 37.3263 7.62567 38.7375 7.57015 40.9652C7.57015 44.3924 9.80587 47.0586 13.0762 47.0586C16.3465 47.0586 18.3601 44.5537 18.3601 41.5095V39.0047C18.3601 35.7387 15.8014 33.2943 13.3487 31.6059L8.6653 28.34C4.30489 25.3563 0.979073 21.1681 0.979073 15.3469V13.7139C0.979073 6.0985 6.31856 0.388184 14.0048 0.388184C21.1359 0.388184 26.4754 5.88178 26.6419 14.3691C26.6419 16.4355 25.0623 18.1189 22.8871 18.1189C21.1964 18.1189 19.0717 16.7581 19.0717 14.5304C19.0717 10.9923 17.2196 8.1145 14.0048 8.1145C10.79 8.1145 8.71577 10.5589 8.71577 13.7139V15.3469C8.71577 18.3356 10.7345 20.2962 12.9652 21.7628L17.4871 24.8624C22.4985 28.1787 26.0918 33.0776 26.0918 39.0047V41.5095C26.0918 48.8528 20.5908 54.7849 13.0762 54.7849C5.56154 54.7849 0 49.2359 0 41.0761C0 39.0097 1.58469 37.3263 3.75984 37.3263Z" fill="white"/>
<path d="M39.8896 3.21562C40.3237 1.52722 41.9588 0.388184 43.594 0.388184C45.2291 0.388184 46.8643 1.52722 47.2983 3.21562L59.3399 49.6189C59.8799 51.6853 58.7948 53.6963 57.1042 54.2456C55.146 54.8958 52.8548 53.8122 52.4208 51.9625L50.5131 43.6415H37.2199L35.4232 51.9625C34.9892 53.8676 32.698 54.9008 30.7903 54.2456C29.0492 53.7013 28.0146 51.6903 28.5041 49.6743L39.8896 3.21562ZM38.7491 36.4544H48.9385L43.71 13.3914L38.7491 36.4544Z" fill="white"/>
<path d="M59.1884 5.4482C58.7544 3.54308 59.355 1.20452 61.6412 0.604756C63.3823 0.0604357 65.613 0.710596 66.1076 2.99876L74.1118 39.0096L82.0655 2.94332C82.56 0.710596 84.8412 -0.0504444 86.8599 0.660196C89.0401 1.47668 89.5851 3.21548 89.0401 5.39276L77.9826 51.5793C77.5486 53.3786 75.9134 54.6285 74.1168 54.6285C72.3201 54.6285 70.685 53.434 70.251 51.6348L59.1884 5.4482Z" fill="white"/>
<path d="M155.542 4.25372C155.542 2.23772 157.283 0.549316 159.246 0.549316C161.209 0.549316 162.95 2.23772 162.95 4.25372V50.9241C162.95 52.9351 161.209 54.6235 159.246 54.6235C157.283 54.6235 155.542 52.9351 155.542 50.9241V4.25372Z" fill="white"/>
<path d="M173.856 4.57629C173.856 2.56533 175.491 0.932373 177.505 0.932373H187.366C193.902 0.932373 198.913 5.99757 198.913 11.975V20.1902C198.913 24.9228 195.865 29.111 191.399 30.6885L198.313 48.8577C198.969 50.5461 199.241 52.7738 197.278 54.0288C195.648 55.1729 192.867 54.9561 192.05 52.8343L183.829 31.3992H181.209V50.9292C181.209 52.9401 179.519 54.6285 177.561 54.6285C175.602 54.6285 173.856 52.9401 173.856 50.9292V4.57629ZM181.209 24.1063H187.366C189.708 24.1063 191.505 22.3121 191.505 20.1902V12.0305C191.505 9.96405 189.658 8.27565 187.366 8.27565H181.209V24.1063Z" fill="white"/>
<path d="M208.411 37.3263C210.097 37.3263 212.277 38.7375 212.222 40.9651C212.222 44.3923 214.457 47.0585 217.728 47.0585C220.998 47.0585 223.012 44.5536 223.012 41.5095V39.0046C223.012 35.7387 220.453 33.2943 218 31.6059L213.317 28.3399C208.962 25.3512 205.636 21.1579 205.636 15.3418V13.7088C205.636 6.09338 210.975 0.383057 218.656 0.383057C225.793 0.383057 231.127 5.87666 231.293 14.364C231.293 16.4304 229.714 18.1138 227.534 18.1138C225.848 18.1138 223.723 16.753 223.723 14.5253C223.723 10.9872 221.871 8.10938 218.656 8.10938C215.442 8.10938 213.367 10.5538 213.367 13.7088V15.3418C213.367 18.3305 215.386 20.2911 217.617 21.7577L222.139 24.8573C227.15 28.1736 230.743 33.0725 230.743 38.9995V41.5044C230.743 48.8477 225.242 54.7798 217.728 54.7798C210.213 54.7798 204.652 49.2307 204.652 41.071C204.652 39.0046 206.236 37.3212 208.411 37.3212V37.3263Z" fill="white"/>
<path d="M1.96313 67.6165C1.96313 65.9886 3.2652 64.6782 4.9054 64.6782H12.203C18.2541 64.6782 22.8265 69.2495 22.8265 74.5768V97.8061C22.8265 103.305 18.1935 107.765 12.203 107.765H4.9054C3.27025 107.765 1.96313 106.46 1.96313 104.827V67.6165ZM12.203 101.944C14.8728 101.944 16.9419 100.039 16.9419 97.8061V74.5768C16.9419 72.3491 14.8728 70.4994 12.203 70.4994H7.84767V101.944H12.203Z" fill="white"/>
<path d="M33.1371 66.5886C33.5207 65.1169 34.9388 64.1391 36.4579 64.5222C37.982 64.9052 39.0217 66.3719 38.6381 67.9494L36.6194 75.5648C36.1854 77.0869 34.7723 77.9588 33.2986 77.6312C31.825 77.3036 30.6844 75.7261 31.1184 74.1486L33.1321 66.5886H33.1371Z" fill="white"/>
<path d="M65.9917 104.066C66.4257 105.805 65.9917 107.221 64.2505 107.871C62.6154 108.416 60.8187 107.816 60.3847 106.027L58.8606 99.283H49.1657L47.6416 106.027C47.2076 107.821 45.4614 108.365 44.0433 107.932C42.2466 107.438 41.7016 105.593 42.0851 104.071L50.9624 67.0825C51.2904 65.6662 52.653 64.6885 54.0157 64.6885C55.4843 64.6885 56.7914 65.7217 57.1194 67.1379L65.9967 104.076L65.9917 104.066ZM50.5233 93.5122H57.4979L54.0106 78.2814L50.5233 93.5122Z" fill="white"/>
<path d="M70.0895 68.7104C69.706 67.1883 70.2561 65.3336 72.0477 64.8498C73.4658 64.4163 75.212 64.9606 75.646 66.7549L82.0201 94.4951L88.3941 66.7549C88.8282 64.9606 90.6248 64.3609 92.26 64.9052C94.0011 65.5604 94.4402 66.9716 94.0011 68.7154L85.1238 105.654C84.7958 107.065 83.4887 108.103 82.0201 108.103C80.6574 108.103 79.2948 107.12 78.9668 105.709L70.0895 68.7205V68.7104Z" fill="white"/>
<path d="M118.695 101.894C120.386 101.894 121.748 103.305 121.748 104.772C121.748 106.404 120.386 107.765 118.695 107.765H105.896C104.206 107.765 102.899 106.46 102.899 104.772V67.6771C102.899 66.0442 104.206 64.6833 105.896 64.6833H118.695C120.386 64.6833 121.748 66.0946 121.748 67.6771C121.748 69.2597 120.386 70.6154 118.695 70.6154H108.834V83.0693H116.187C117.766 83.0693 119.129 84.3746 119.129 86.0076C119.129 87.5297 117.766 88.8905 116.187 88.8905H108.834V101.894H118.695Z" fill="white"/>
<path d="M136.414 80.0807V105.049C136.414 106.677 135.163 108.038 133.689 108.038C132.326 108.038 131.024 106.677 131.024 105.049V67.5664C131.024 65.878 132.276 64.5776 133.906 64.5776C135.107 64.5776 136.248 65.1169 136.793 66.5332L147.199 92.6454V67.6218C147.199 66.0443 148.456 64.6835 149.924 64.6835C151.287 64.6835 152.594 66.0443 152.594 67.6218V105.155C152.594 106.843 151.337 108.098 149.707 108.098C148.511 108.098 147.421 107.66 146.871 106.299L136.414 80.0807Z" fill="white"/>
<path d="M164.59 67.7829C164.59 66.155 166.008 64.7942 167.538 64.7942C169.067 64.7942 170.53 66.155 170.53 67.7829V105.099C170.53 106.732 169.117 108.093 167.538 108.093C165.958 108.093 164.59 106.732 164.59 105.099V67.7829Z" fill="white"/>
<path d="M202.734 80.2419C202.734 84.1025 200.281 87.4743 196.632 88.7796L202.244 103.411C202.789 104.772 203.067 106.571 201.427 107.599C200.119 108.526 197.889 108.31 197.233 106.621L190.536 89.324H188.466V105.044C188.466 106.732 187.104 108.093 185.524 108.093C183.945 108.093 182.531 106.732 182.531 105.044V67.6721C182.531 66.0392 183.834 64.7288 185.524 64.7288H193.422C198.706 64.7288 202.739 68.7557 202.739 73.5941V80.2318L202.734 80.2419ZM196.743 73.6596C196.743 72.0267 195.27 70.6659 193.422 70.6659H188.461V83.4473H193.422C195.33 83.4473 196.743 81.9252 196.743 80.2419V73.6596Z" fill="white"/>
<path d="M213.372 94.2229C214.735 94.2229 216.476 95.367 216.426 97.1612C216.426 99.8828 218.222 102.005 220.837 102.005C223.451 102.005 225.086 100.049 225.086 97.5997V95.5887C225.086 92.973 223.017 91.0174 221.059 89.6566L217.299 87.0459C213.812 84.6519 211.202 81.3306 211.202 76.6534V75.3481C211.202 69.2598 215.452 64.6885 221.604 64.6885C227.327 64.6885 231.576 69.0934 231.682 75.8924C231.682 77.5254 230.431 78.8862 228.689 78.8862C227.327 78.8862 225.636 77.7975 225.636 76.0033C225.636 73.1708 224.167 70.8877 221.604 70.8877C219.04 70.8877 217.354 72.8432 217.354 75.3481V76.6534C217.354 79.0474 219.045 80.5695 220.786 81.764L224.384 84.2689C228.356 87.0459 231.248 90.8511 231.248 95.5837V97.5946C231.248 103.471 226.893 108.204 220.842 108.204C214.791 108.204 210.385 103.743 210.385 97.2166C210.385 95.5887 211.641 94.2279 213.383 94.2279L213.372 94.2229Z" fill="white"/>
</g>
<defs>
<clipPath id="clip0_110_4168">
<rect width="232" height="126" fill="white"/>
</clipPath>
</defs>
</svg>
