<svg width="144" height="129" viewBox="0 0 144 129" fill="none" xmlns="http://www.w3.org/2000/svg">
<g clip-path="url(#clip0_110_3230)">
<path d="M42.5782 54.4736C42.9511 54.8414 43.4671 55.9497 43.4722 56.4758C43.4875 58.0286 42.2308 61.1596 42.1031 63.1976C41.6178 70.7621 44.9281 77.6575 50.5166 82.5455C51.5077 83.4138 53.7502 84.3741 54.2304 85.554C55.201 87.9444 53.3313 90.3245 50.8742 89.4716C48.6316 88.6952 44.3355 84.5937 42.8081 82.6834C37.148 75.6195 34.7522 65.0312 37.7661 56.3379C38.5068 54.1978 40.6779 52.5889 42.5731 54.4736H42.5782Z" fill="#00A7FF"/>
<path d="M84.6202 43.8241C87.0977 46.6997 84.1604 50.2955 80.702 47.8847C73.9692 43.1907 69.5964 40.5858 60.8305 42.1232C58.5879 42.5165 55.528 44.4727 53.8882 42.1845C50.675 37.6948 60.386 36.3515 63.0015 36.1625C69.6629 35.6824 80.135 38.6142 84.6202 43.819V43.8241Z" fill="#00A7FF"/>
<path d="M123.357 50.9238C124.909 50.9238 126.167 49.666 126.167 48.1145C126.167 46.563 124.909 45.3053 123.357 45.3053C121.805 45.3053 120.547 46.563 120.547 48.1145C120.547 49.666 121.805 50.9238 123.357 50.9238Z" fill="#A325C0"/>
<path d="M64.2582 112.385C44.591 111.94 26.8598 99.3958 20.2496 80.8651C17.6034 73.4436 16.6482 64.6226 18.0938 56.8436C18.5178 54.5656 19.2892 52.262 22.1397 53.1967C25.2609 54.2131 23.2175 59.5711 23.0592 62.0892C22.1397 76.876 29.4855 91.5964 41.7456 99.7227C48.4274 104.151 56.2227 106.567 64.2531 106.782V112.385H64.2582Z" fill="#00D49B"/>
<path d="M105.733 54.6575C103.072 43.8496 93.0337 22.8008 62.4345 22.714C59.911 22.7089 54.5574 24.9154 53.5408 21.7946C52.6111 18.9445 54.9099 18.1732 57.1882 17.7493C64.9683 16.3038 72.8965 17.1466 81.2129 19.9047C98.3771 25.5947 109.968 43.2418 111.654 54.6218L105.733 54.6575Z" fill="#00D49B"/>
<path d="M66.7766 129L64.7026 122.815C64.7026 122.815 24.3311 122.079 10.2166 83.3831C10.2166 83.3831 0.909177 61.6907 13.343 36.2493L8.3674 33.5371C8.3674 33.5371 -4.62319 57.1806 4.83752 85.6663C19.2278 129 66.7766 129 66.7766 129Z" fill="#A325C0"/>
<path d="M32.7192 9.25512L36.7957 13.6069C36.7957 13.6069 57.0402 1.12878 80.5898 8.32552C103.266 15.2567 112.456 28.1332 118.274 39.7174C118.872 40.9075 120.124 41.6737 121.447 41.5307C122.647 41.403 123.725 40.5347 123.245 37.5722C122.289 31.6524 107.23 9.94977 82.4952 3.03395C57.7605 -3.88187 35.488 6.70128 32.7192 9.25512Z" fill="#A325C0"/>
<path d="M20.1934 40.3763C9.05715 40.3763 0 31.3204 0 20.1907C0 9.06105 9.05715 0 20.1934 0C31.3297 0 40.3868 9.05595 40.3868 20.1907C40.3868 31.3255 31.3297 40.3815 20.1934 40.3815V40.3763ZM20.1934 4.34154C11.453 4.34154 4.34723 11.4515 4.34723 20.1856C4.34723 28.9198 11.4581 36.0297 20.1934 36.0297C28.9287 36.0297 36.0396 28.9198 36.0396 20.1856C36.0396 11.4515 28.9287 4.34154 20.1934 4.34154Z" fill="#FF9600"/>
<path d="M144 93.1134V68.3972C144 66.8853 142.774 65.6595 141.262 65.6595H120.18V59.3566C120.18 59.0757 119.511 57.5127 119.291 57.1603C117.503 54.2693 114.172 54.7392 111.245 54.6984L105.325 54.7341H89.2077C87.8131 54.7341 85.1414 57.3901 85.1414 58.7999V65.6646H64.0642C62.5521 65.6646 61.3261 66.8905 61.3261 68.4023L61.3159 93.1236C61.3159 94.518 62.4449 95.6519 63.8446 95.6519V126.073C63.8446 127.692 65.1574 129.01 66.7819 129.01H138.223C139.852 129.01 141.17 127.687 141.16 126.058L140.971 95.6519H141.477C142.871 95.6519 144.005 94.518 144.005 93.1236L144 93.1134ZM90.7504 60.3322H114.571V65.6544H90.7504V60.3322ZM135.592 107.277C135.592 108.743 134.401 109.933 132.935 109.933H116.675C116.675 109.933 116.629 109.938 116.609 109.938C116.599 109.938 116.594 109.938 116.583 109.938C115.036 109.938 113.784 111.19 113.784 112.737C113.784 114.285 115.036 115.536 116.583 115.536C116.609 115.536 116.629 115.536 116.655 115.536C116.665 115.536 116.67 115.536 116.68 115.536H132.94C134.407 115.536 135.597 116.726 135.597 118.192V120.45C135.597 122.069 134.284 123.387 132.659 123.387H72.396C70.7766 123.387 69.4587 122.074 69.4587 120.455V98.5837C69.4536 96.9646 70.7664 95.6468 72.3858 95.6468H94.3927C95.7566 105.438 109.365 105.321 110.928 95.6468H132.654C134.274 95.6468 135.592 96.9595 135.592 98.5837V107.282V107.277ZM99.7156 95.4782V91.0805C99.7156 90.3501 100.308 89.7576 101.039 89.7576H103.996C104.727 89.7576 105.319 90.3501 105.319 91.0805V95.4782C105.319 96.2086 104.727 96.8011 103.996 96.8011H101.039C100.308 96.8011 99.7156 96.2086 99.7156 95.4782ZM138.396 86.5347C138.396 90.0385 136.016 90.0385 134.892 90.0385H110.928C111.061 88.0261 111.092 84.9717 108.696 84.2822C107.322 83.8889 99.358 83.9706 97.6007 84.1391C94.2343 84.4609 93.9635 87.214 94.1117 90.0385H70.4293C69.331 90.0385 66.9249 89.7219 66.9249 86.8156V74.0004C66.9249 72.4885 68.1509 71.2626 69.663 71.2626H135.653C137.165 71.2626 138.391 72.4885 138.391 74.0004V86.5347H138.396Z" fill="url(#paint0_linear_110_3230)"/>
<path d="M103.567 115.505C105.099 115.505 106.341 114.264 106.341 112.732C106.341 111.2 105.099 109.958 103.567 109.958C102.035 109.958 100.793 111.2 100.793 112.732C100.793 114.264 102.035 115.505 103.567 115.505Z" fill="url(#paint1_linear_110_3230)"/>
<path d="M29.1842 22.7344L28.4077 24.6804C28.893 25.3138 29.4651 25.6458 29.0565 26.56C28.9747 26.749 26.9314 28.8381 26.7117 28.9709C25.8331 29.5123 25.312 28.8381 24.6939 28.3324C24.086 28.6389 23.4832 28.9709 22.8089 29.0934C22.8396 29.7932 22.7681 30.6615 21.9967 30.9322C21.6238 31.065 19.0951 31.065 18.6354 30.9884C18.2165 30.9169 17.7261 30.4674 17.6648 30.0435C17.629 29.8136 17.7363 29.2518 17.583 29.1241L15.7032 28.3426C15.0289 29.027 14.421 29.5123 13.5168 28.8227C13.1694 28.5571 11.7237 27.1219 11.4888 26.7848C11.1465 26.2893 11.1312 25.8143 11.4581 25.3035C11.5654 25.135 12.0507 24.7672 12.0302 24.6344L11.2231 22.7548C10.2934 22.7803 9.47095 22.6067 9.37389 21.5341C9.3177 20.9109 9.29216 19.1283 9.39432 18.5563C9.55268 17.6777 10.5488 17.5143 11.2895 17.5705C11.4172 16.8912 11.7442 16.2884 12.0507 15.6857C11.4939 15.0268 10.8349 14.4803 11.4836 13.5865C11.6982 13.2902 13.3993 11.5894 13.6751 11.4055C14.0838 11.1399 14.6406 11.1399 15.0493 11.4055C15.2638 11.5485 15.5091 12.0031 15.7645 11.9673C15.9024 11.9469 16.2549 11.7068 16.4388 11.6353C16.8372 11.477 17.2459 11.334 17.6546 11.2012C17.6086 10.5678 17.675 9.60247 18.431 9.40838C18.7937 9.31644 21.5165 9.31133 21.9047 9.38795C22.6557 9.54118 22.8753 10.5065 22.814 11.1654L24.6888 11.9776C25.312 11.5025 25.6441 10.9816 26.5329 11.2829C26.8548 11.3902 28.5099 13.0451 28.7959 13.3924C29.2557 13.9593 29.3579 14.4956 28.9032 15.1137C28.7244 15.3537 28.3668 15.4968 28.4435 15.8083C28.5558 16.268 29.1127 16.9831 29.174 17.5398C29.8278 17.5449 30.7831 17.6522 30.9823 18.4133C31.0998 18.8627 31.0743 21.1305 31.0232 21.6822C30.9261 22.668 30.0117 22.7803 29.1893 22.7241L29.1842 22.7344Z" fill="#FF9600"/>
<path d="M20.214 25.9777C17.0059 25.9777 14.4058 23.3779 14.4058 20.1702C14.4058 16.9626 17.0059 14.3628 20.214 14.3628C23.422 14.3628 26.0222 16.9626 26.0222 20.1702C26.0222 23.3779 23.422 25.9777 20.214 25.9777Z" fill="white"/>
</g>
<defs>
<linearGradient id="paint0_linear_110_3230" x1="61.3159" y1="91.8416" x2="144" y2="91.8416" gradientUnits="userSpaceOnUse">
<stop stop-color="#2612E0"/>
<stop offset="0.14" stop-color="#2510D8"/>
<stop offset="0.36" stop-color="#230DC3"/>
<stop offset="0.62" stop-color="#1F08A0"/>
<stop offset="0.91" stop-color="#1B0271"/>
<stop offset="1" stop-color="#1A0062"/>
</linearGradient>
<linearGradient id="paint1_linear_110_3230" x1="100.793" y1="112.732" x2="106.341" y2="112.732" gradientUnits="userSpaceOnUse">
<stop stop-color="#2612E0"/>
<stop offset="0.14" stop-color="#2510D8"/>
<stop offset="0.36" stop-color="#230DC3"/>
<stop offset="0.62" stop-color="#1F08A0"/>
<stop offset="0.91" stop-color="#1B0271"/>
<stop offset="1" stop-color="#1A0062"/>
</linearGradient>
<clipPath id="clip0_110_3230">
<rect width="144" height="129" fill="white"/>
</clipPath>
</defs>
</svg>
