<svg width="228" height="51" viewBox="0 0 228 51" fill="none" xmlns="http://www.w3.org/2000/svg">
<rect width="228" height="51" rx="25" fill="white"/>
<path d="M37.5601 32L35.4011 27.512H34.4491V32H31.7631V19.947H36.5401C38.9201 19.947 40.4501 21.579 40.4501 23.721C40.4501 25.353 39.5491 26.594 38.0701 27.121L40.5181 32H37.5601ZM34.4491 25.2H36.0301C37.1351 25.2 37.7301 24.588 37.7301 23.738C37.7301 22.837 37.1351 22.276 36.0301 22.276H34.4491V25.2ZM44.0403 26.764H47.4233C47.3893 26.118 46.9473 25.336 45.7233 25.336C44.6353 25.336 44.0913 26.135 44.0403 26.764ZM47.6103 28.957L49.7693 29.569C49.3613 31.031 48.0183 32.255 45.8763 32.255C43.5473 32.255 41.4733 30.589 41.4733 27.75C41.4733 25.03 43.4963 23.296 45.6893 23.296C48.3073 23.296 49.9223 24.911 49.9223 27.631C49.9223 27.988 49.8883 28.379 49.8713 28.43H43.9893C44.0403 29.382 44.9073 30.062 45.9103 30.062C46.8453 30.062 47.3723 29.62 47.6103 28.957ZM54.1654 35.23H51.5814V23.551H54.0804V24.418C54.4374 23.874 55.3554 23.347 56.5624 23.347C59.0104 23.347 60.4894 25.217 60.4894 27.75C60.4894 30.334 58.8234 32.187 56.4604 32.187C55.3724 32.187 54.5564 31.813 54.1654 31.337V35.23ZM57.9564 27.767C57.9564 26.356 57.0554 25.676 56.0354 25.676C55.0324 25.676 54.1314 26.356 54.1314 27.767C54.1314 29.161 55.0324 29.875 56.0354 29.875C57.0554 29.875 57.9564 29.178 57.9564 27.767ZM64.7406 32H62.1566V19.692H64.7406V32ZM66.4278 29.671C66.4278 28.175 67.5328 27.325 68.9268 27.121L70.9158 26.815C71.3748 26.747 71.5278 26.526 71.5278 26.237C71.5278 25.744 71.1028 25.319 70.2868 25.319C69.3858 25.319 68.8928 25.931 68.8418 26.56L66.5978 26.101C66.6998 24.894 67.8218 23.296 70.3038 23.296C73.0408 23.296 74.0438 24.826 74.0438 26.56V30.691C74.0438 31.354 74.1288 31.915 74.1458 32H71.8168C71.7998 31.932 71.7318 31.626 71.7318 31.048C71.2898 31.762 70.4738 32.238 69.3518 32.238C67.4988 32.238 66.4278 31.014 66.4278 29.671ZM69.9808 30.368C70.7458 30.368 71.5278 29.994 71.5278 28.685V28.311L69.9298 28.566C69.3858 28.651 68.9778 28.906 68.9778 29.501C68.9778 29.943 69.2668 30.368 69.9808 30.368ZM79.2841 35.247H76.5641L78.4851 30.861L74.9321 23.551H77.8221L79.8791 28.073L81.7491 23.551H84.4861L79.2841 35.247ZM94.7918 23.551H97.5288L99.1778 28.566L100.589 23.551H103.122L100.504 32H97.9368L96.1008 26.543L94.2988 32H91.6808L89.0288 23.551H91.7148L93.1258 28.549L94.7918 23.551ZM106.147 26.764H109.53C109.496 26.118 109.054 25.336 107.83 25.336C106.742 25.336 106.198 26.135 106.147 26.764ZM109.717 28.957L111.876 29.569C111.468 31.031 110.125 32.255 107.983 32.255C105.654 32.255 103.58 30.589 103.58 27.75C103.58 25.03 105.603 23.296 107.796 23.296C110.414 23.296 112.029 24.911 112.029 27.631C112.029 27.988 111.995 28.379 111.978 28.43H106.096C106.147 29.382 107.014 30.062 108.017 30.062C108.952 30.062 109.479 29.62 109.717 28.957ZM116.187 32H113.688V19.692H116.221V24.35C116.578 23.823 117.513 23.347 118.669 23.347C121.117 23.347 122.596 25.217 122.596 27.75C122.596 30.334 120.93 32.187 118.567 32.187C117.445 32.187 116.578 31.694 116.187 31.048V32ZM120.012 27.767C120.012 26.339 119.111 25.676 118.108 25.676C117.105 25.676 116.187 26.339 116.187 27.767C116.187 29.161 117.105 29.875 118.108 29.875C119.111 29.875 120.012 29.178 120.012 27.767ZM126.847 32H124.263V23.551H126.847V32ZM124.042 20.967C124.042 20.134 124.722 19.454 125.538 19.454C126.388 19.454 127.068 20.134 127.068 20.967C127.068 21.8 126.388 22.48 125.538 22.48C124.722 22.48 124.042 21.8 124.042 20.967ZM131.695 27.155V32H129.111V23.551H131.61V24.52C132.069 23.721 133.106 23.33 133.973 23.33C136.098 23.33 137.05 24.843 137.05 26.696V32H134.466V27.138C134.466 26.305 134.024 25.676 133.089 25.676C132.239 25.676 131.695 26.305 131.695 27.155ZM138.711 29.671C138.711 28.175 139.816 27.325 141.21 27.121L143.199 26.815C143.658 26.747 143.811 26.526 143.811 26.237C143.811 25.744 143.386 25.319 142.57 25.319C141.669 25.319 141.176 25.931 141.125 26.56L138.881 26.101C138.983 24.894 140.105 23.296 142.587 23.296C145.324 23.296 146.327 24.826 146.327 26.56V30.691C146.327 31.354 146.412 31.915 146.429 32H144.1C144.083 31.932 144.015 31.626 144.015 31.048C143.573 31.762 142.757 32.238 141.635 32.238C139.782 32.238 138.711 31.014 138.711 29.671ZM142.264 30.368C143.029 30.368 143.811 29.994 143.811 28.685V28.311L142.213 28.566C141.669 28.651 141.261 28.906 141.261 29.501C141.261 29.943 141.55 30.368 142.264 30.368ZM151.085 32H148.501V23.551H151.085V32ZM148.28 20.967C148.28 20.134 148.96 19.454 149.776 19.454C150.626 19.454 151.306 20.134 151.306 20.967C151.306 21.8 150.626 22.48 149.776 22.48C148.96 22.48 148.28 21.8 148.28 20.967ZM158.721 23.551V26.101C158.432 26.033 158.16 26.016 157.905 26.016C156.868 26.016 155.933 26.628 155.933 28.311V32H153.349V23.551H155.848V24.69C156.29 23.738 157.361 23.466 158.041 23.466C158.296 23.466 158.551 23.5 158.721 23.551ZM162.144 26.764H165.527C165.493 26.118 165.051 25.336 163.827 25.336C162.739 25.336 162.195 26.135 162.144 26.764ZM165.714 28.957L167.873 29.569C167.465 31.031 166.122 32.255 163.98 32.255C161.651 32.255 159.577 30.589 159.577 27.75C159.577 25.03 161.6 23.296 163.793 23.296C166.411 23.296 168.026 24.911 168.026 27.631C168.026 27.988 167.992 28.379 167.975 28.43H162.093C162.144 29.382 163.011 30.062 164.014 30.062C164.949 30.062 165.476 29.62 165.714 28.957Z" fill="#A325C0"/>
<g clip-path="url(#clip0_110_4159)">
<path d="M183.866 15.0102C184.486 14.9568 185.066 15.1075 185.625 15.3721L197.766 23.0048C199.223 24.173 199.418 26.1859 198.2 27.616C194.179 30.4526 189.866 32.894 185.731 35.5747C183.693 36.7306 181.185 35.4064 181 33.0649L181.01 17.8521C181.174 16.3606 182.362 15.139 183.866 15.0102ZM196.611 26.2507C197.205 25.3972 196.878 24.945 196.144 24.435C192.484 21.8937 188.37 19.7572 184.668 17.251C183.944 16.8268 183.125 17.3447 183.093 18.1693V32.8678C183.15 33.7546 184.09 34.1857 184.816 33.6722L196.611 26.2498V26.2507Z" fill="#A325C0"/>
<path d="M196.611 26.251L184.815 33.6726C184.09 34.187 183.149 33.7549 183.092 32.8681V18.1697C183.124 17.3451 183.943 16.8272 184.667 17.2513C188.369 19.7576 192.484 21.894 196.143 24.4353C196.878 24.9453 197.205 25.3975 196.61 26.251H196.611Z" fill="white"/>
</g>
<defs>
<clipPath id="clip0_110_4159">
<rect width="18" height="21" fill="white" transform="translate(181 15)"/>
</clipPath>
</defs>
</svg>
