<svg width="207" height="51" viewBox="0 0 207 51" fill="none" xmlns="http://www.w3.org/2000/svg">
<rect width="207" height="51" rx="25" fill="white"/>
<path d="M33.2596 25.353H34.8236C35.8436 25.353 36.5406 24.758 36.5406 23.823C36.5406 22.854 35.8436 22.276 34.8236 22.276H33.2596V25.353ZM35.0956 27.665H33.2426V32H30.5566V19.947H35.0956C37.5436 19.947 39.2266 21.562 39.2266 23.806C39.2266 26.084 37.5436 27.665 35.0956 27.665ZM43.2967 32H40.7127V19.692H43.2967V32ZM44.984 29.671C44.984 28.175 46.089 27.325 47.483 27.121L49.472 26.815C49.931 26.747 50.084 26.526 50.084 26.237C50.084 25.744 49.659 25.319 48.843 25.319C47.942 25.319 47.449 25.931 47.398 26.56L45.154 26.101C45.256 24.894 46.378 23.296 48.86 23.296C51.597 23.296 52.6 24.826 52.6 26.56V30.691C52.6 31.354 52.685 31.915 52.702 32H50.373C50.356 31.932 50.288 31.626 50.288 31.048C49.846 31.762 49.03 32.238 47.908 32.238C46.055 32.238 44.984 31.014 44.984 29.671ZM48.537 30.368C49.302 30.368 50.084 29.994 50.084 28.685V28.311L48.486 28.566C47.942 28.651 47.534 28.906 47.534 29.501C47.534 29.943 47.823 30.368 48.537 30.368ZM63.0375 35.23H60.5044V31.32C60.1304 31.847 59.3484 32.187 58.2944 32.187C55.8804 32.187 54.1124 30.334 54.1124 27.75C54.1124 25.234 55.7784 23.347 58.1924 23.347C59.6884 23.347 60.3854 24.027 60.5724 24.384V23.551H63.0375V35.23ZM56.7304 27.767C56.7304 29.161 57.6314 29.875 58.6344 29.875C59.6374 29.875 60.5384 29.178 60.5384 27.767C60.5384 26.356 59.6374 25.676 58.6344 25.676C57.6314 25.676 56.7304 26.356 56.7304 27.767ZM70.7566 32C70.7226 31.847 70.6886 31.371 70.6886 31.15C70.2466 31.881 69.2776 32.187 68.4276 32.187C66.3706 32.187 65.2146 30.691 65.2146 28.889V23.551H67.7986V28.345C67.7986 29.161 68.2406 29.807 69.1586 29.807C70.0256 29.807 70.5696 29.212 70.5696 28.362V23.551H73.1536V30.487C73.1536 31.252 73.2216 31.864 73.2386 32H70.7566ZM77.365 26.764H80.748C80.714 26.118 80.272 25.336 79.048 25.336C77.96 25.336 77.416 26.135 77.365 26.764ZM80.935 28.957L83.094 29.569C82.686 31.031 81.343 32.255 79.201 32.255C76.872 32.255 74.798 30.589 74.798 27.75C74.798 25.03 76.821 23.296 79.014 23.296C81.632 23.296 83.247 24.911 83.247 27.631C83.247 27.988 83.213 28.379 83.196 28.43H77.314C77.365 29.382 78.232 30.062 79.235 30.062C80.17 30.062 80.697 29.62 80.935 28.957ZM88.0001 21.086V23.551H89.6491V25.812H88.0001V28.974C88.0001 29.671 88.3741 29.858 88.9351 29.858C89.2071 29.858 89.4621 29.807 89.6151 29.773V31.915C89.5131 31.966 89.0881 32.153 88.2721 32.153C86.5211 32.153 85.4501 31.116 85.4501 29.433V25.812H83.9541V23.551H84.3791C85.2631 23.551 85.6881 22.956 85.6881 22.174V21.086H88.0001ZM94.4913 21.086V23.551H96.1403V25.812H94.4913V28.974C94.4913 29.671 94.8653 29.858 95.4263 29.858C95.6983 29.858 95.9533 29.807 96.1063 29.773V31.915C96.0043 31.966 95.5793 32.153 94.7633 32.153C93.0123 32.153 91.9413 31.116 91.9413 29.433V25.812H90.4453V23.551H90.8703C91.7543 23.551 92.1793 22.956 92.1793 22.174V21.086H94.4913ZM99.8269 26.764H103.21C103.176 26.118 102.734 25.336 101.51 25.336C100.422 25.336 99.8779 26.135 99.8269 26.764ZM103.397 28.957L105.556 29.569C105.148 31.031 103.805 32.255 101.663 32.255C99.3339 32.255 97.2599 30.589 97.2599 27.75C97.2599 25.03 99.2829 23.296 101.476 23.296C104.094 23.296 105.709 24.911 105.709 27.631C105.709 27.988 105.675 28.379 105.658 28.43H99.7759C99.8269 29.382 100.694 30.062 101.697 30.062C102.632 30.062 103.159 29.62 103.397 28.957ZM114.425 25.353H115.989C117.009 25.353 117.706 24.758 117.706 23.823C117.706 22.854 117.009 22.276 115.989 22.276H114.425V25.353ZM116.261 27.665H114.408V32H111.722V19.947H116.261C118.709 19.947 120.392 21.562 120.392 23.806C120.392 26.084 118.709 27.665 116.261 27.665ZM124.75 29.467H126.314C128.167 29.467 129.68 28.396 129.68 25.982C129.68 23.568 128.167 22.48 126.314 22.48H124.75V29.467ZM126.416 32H122.064V19.947H126.433C130.054 19.947 132.485 22.259 132.485 25.982C132.485 29.705 130.054 32 126.416 32ZM137.102 32H134.399V19.947H142.168V22.497H137.085V25.047H141.556V27.495H137.102V32Z" fill="#A325C0"/>
<g clip-path="url(#clip0_110_4146)">
<path d="M167.087 15V26.8278L170.984 22.9335L172.469 24.4698L166.017 30.9564L159.531 24.4698L161.016 22.9335L164.913 26.8278V15H167.087Z" fill="#A325C0"/>
<path d="M156.079 31.0078V33.3589C156.079 33.5309 156.321 33.8621 156.526 33.8596L175.588 33.8317C175.727 33.7841 175.922 33.4953 175.922 33.3589V31.0078H178.001V33.6438C178.001 34.7582 176.584 36.0317 175.472 35.9943L156.621 35.9975C155.478 36.0679 154.001 34.7962 154.001 33.6438V31.0078H156.08H156.079Z" fill="#A325C0"/>
</g>
<defs>
<clipPath id="clip0_110_4146">
<rect width="24" height="21" fill="white" transform="translate(154 15)"/>
</clipPath>
</defs>
</svg>
