<svg width="201" height="51" viewBox="0 0 201 51" fill="none" xmlns="http://www.w3.org/2000/svg">
<rect width="201" height="51" rx="25" fill="url(#paint0_linear_110_4080)"/>
<path d="M159.875 13.0596C161.959 13.1386 164.214 12.9054 166.279 13.0463C169.579 13.2717 172.215 15.9322 172.417 18.9426V32.2153C172.206 35.2187 169.5 37.8533 166.22 38.0568C164.198 38.1821 162.025 37.9582 159.988 38.0545C158.549 37.8299 158.461 35.9482 159.876 35.603C163.457 35.3314 168.894 36.8319 169.683 32.2153V18.8847C168.861 14.2478 163.595 15.8031 160.049 15.5134C158.561 15.3921 158.439 13.3797 159.875 13.0596Z" fill="white"/>
<path d="M159.637 26.7824H148.991C148.967 26.7824 148.634 26.607 148.582 26.5734C147.806 26.0677 147.806 25.0314 148.582 24.5258C148.633 24.4921 148.967 24.3168 148.991 24.3168H159.637L156.49 21.3823C155.399 20.1691 157.084 18.5825 158.4 19.6188L163.993 24.7849C164.372 25.2247 164.372 25.8736 163.993 26.3135L158.4 31.4795C157.08 32.512 155.407 30.941 156.491 29.7168L159.638 26.7824H159.637Z" fill="white"/>
<path d="M38.8203 21.905L36.4063 22.585C36.3213 22.024 35.8623 21.072 34.4003 21.072C33.3973 21.072 32.7513 21.701 32.7513 22.364C32.7513 22.942 33.1083 23.367 33.9413 23.52L35.5563 23.826C37.8513 24.251 39.0413 25.73 39.0413 27.447C39.0413 29.334 37.4603 31.255 34.5873 31.255C31.2553 31.255 29.8273 29.096 29.6573 27.396L32.1223 26.801C32.2243 27.906 32.9723 28.875 34.6213 28.875C35.6753 28.875 36.3213 28.365 36.3213 27.617C36.3213 27.005 35.8283 26.563 35.0293 26.41L33.3803 26.104C31.3403 25.713 30.0993 24.353 30.0993 22.568C30.0993 20.29 32.1053 18.692 34.4173 18.692C37.4263 18.692 38.5653 20.494 38.8203 21.905ZM42.6521 25.764H46.0351C46.0011 25.118 45.5591 24.336 44.3351 24.336C43.2471 24.336 42.7031 25.135 42.6521 25.764ZM46.2221 27.957L48.3811 28.569C47.9731 30.031 46.6301 31.255 44.4881 31.255C42.1591 31.255 40.0851 29.589 40.0851 26.75C40.0851 24.03 42.1081 22.296 44.3011 22.296C46.9191 22.296 48.5341 23.911 48.5341 26.631C48.5341 26.988 48.5001 27.379 48.4831 27.43H42.6011C42.6521 28.382 43.5191 29.062 44.5221 29.062C45.4571 29.062 45.9841 28.62 46.2221 27.957ZM58.2698 24.676C57.1988 24.676 56.3318 25.424 56.3318 26.784C56.3318 28.127 57.2328 28.875 58.3038 28.875C59.3068 28.875 59.8678 28.246 60.0548 27.617L62.3328 28.314C61.9588 29.793 60.5648 31.255 58.3038 31.255C55.7878 31.255 53.7648 29.402 53.7648 26.784C53.7648 24.149 55.7368 22.296 58.2188 22.296C60.5478 22.296 61.9078 23.724 62.2818 25.237L59.9698 25.934C59.7828 25.288 59.2728 24.676 58.2698 24.676ZM67.6991 28.875C68.6851 28.875 69.6031 28.195 69.6031 26.767C69.6031 25.339 68.6851 24.676 67.6991 24.676C66.7301 24.676 65.7951 25.339 65.7951 26.767C65.7951 28.178 66.7301 28.875 67.6991 28.875ZM67.6991 22.296C70.2321 22.296 72.1871 24.149 72.1871 26.767C72.1871 29.385 70.2321 31.255 67.6991 31.255C65.1831 31.255 63.2111 29.385 63.2111 26.767C63.2111 24.149 65.1831 22.296 67.6991 22.296ZM76.4344 26.155V31H73.8504V22.551H76.3494V23.52C76.8084 22.721 77.8454 22.33 78.7124 22.33C80.8374 22.33 81.7894 23.843 81.7894 25.696V31H79.2054V26.138C79.2054 25.305 78.7634 24.676 77.8284 24.676C76.9784 24.676 76.4344 25.305 76.4344 26.155ZM86.5448 26.155V31H83.9608V22.551H86.4598V23.52C86.9188 22.721 87.9558 22.33 88.8228 22.33C90.9478 22.33 91.8998 23.843 91.8998 25.696V31H89.3158V26.138C89.3158 25.305 88.8738 24.676 87.9388 24.676C87.0888 24.676 86.5448 25.305 86.5448 26.155ZM96.0261 25.764H99.4091C99.3751 25.118 98.9331 24.336 97.7091 24.336C96.6211 24.336 96.0771 25.135 96.0261 25.764ZM99.5961 27.957L101.755 28.569C101.347 30.031 100.004 31.255 97.8621 31.255C95.5331 31.255 93.4591 29.589 93.4591 26.75C93.4591 24.03 95.4821 22.296 97.6751 22.296C100.293 22.296 101.908 23.911 101.908 26.631C101.908 26.988 101.874 27.379 101.857 27.43H95.9751C96.0261 28.382 96.8931 29.062 97.8961 29.062C98.8311 29.062 99.3581 28.62 99.5961 27.957ZM107.46 24.676C106.389 24.676 105.522 25.424 105.522 26.784C105.522 28.127 106.423 28.875 107.494 28.875C108.497 28.875 109.058 28.246 109.245 27.617L111.523 28.314C111.149 29.793 109.755 31.255 107.494 31.255C104.978 31.255 102.955 29.402 102.955 26.784C102.955 24.149 104.927 22.296 107.409 22.296C109.738 22.296 111.098 23.724 111.472 25.237L109.16 25.934C108.973 25.288 108.463 24.676 107.46 24.676ZM116.191 20.086V22.551H117.84V24.812H116.191V27.974C116.191 28.671 116.565 28.858 117.126 28.858C117.398 28.858 117.653 28.807 117.806 28.773V30.915C117.704 30.966 117.279 31.153 116.463 31.153C114.712 31.153 113.641 30.116 113.641 28.433V24.812H112.145V22.551H112.57C113.454 22.551 113.879 21.956 113.879 21.174V20.086H116.191ZM121.526 25.764H124.909C124.875 25.118 124.433 24.336 123.209 24.336C122.121 24.336 121.577 25.135 121.526 25.764ZM125.096 27.957L127.255 28.569C126.847 30.031 125.504 31.255 123.362 31.255C121.033 31.255 118.959 29.589 118.959 26.75C118.959 24.03 120.982 22.296 123.175 22.296C125.793 22.296 127.408 23.911 127.408 26.631C127.408 26.988 127.374 27.379 127.357 27.43H121.475C121.526 28.382 122.393 29.062 123.396 29.062C124.331 29.062 124.858 28.62 125.096 27.957ZM134.439 22.551V25.101C134.15 25.033 133.878 25.016 133.623 25.016C132.586 25.016 131.651 25.628 131.651 27.311V31H129.067V22.551H131.566V23.69C132.008 22.738 133.079 22.466 133.759 22.466C134.014 22.466 134.269 22.5 134.439 22.551Z" fill="white"/>
<defs>
<linearGradient id="paint0_linear_110_4080" x1="0" y1="25.5" x2="201" y2="25.5" gradientUnits="userSpaceOnUse">
<stop stop-color="#10005A"/>
<stop offset="1" stop-color="#2612E0"/>
</linearGradient>
</defs>
</svg>
