<svg width="128" height="129" viewBox="0 0 128 129" fill="none" xmlns="http://www.w3.org/2000/svg">
<g clip-path="url(#clip0_110_3192)">
<path d="M118.882 90.4037C117.34 90.4037 115.885 90.7881 114.612 91.4655L107.321 84.634C106.839 84.1824 106.203 83.9326 105.543 83.9326H87.8038C83.9004 83.9326 83.9486 88.8568 87.8038 88.8905L103.673 88.9001C104.415 88.9001 105.124 89.1883 105.659 89.6976L111.051 94.862C110.242 96.2215 109.769 97.8021 109.769 99.4931C109.769 104.513 113.851 108.583 118.887 108.583C123.923 108.583 128.005 104.513 128.005 99.4931C128.005 94.4728 123.923 90.4037 118.887 90.4037H118.882ZM118.882 102.952C116.964 102.952 115.412 101.4 115.412 99.4883C115.412 97.5763 116.969 96.0246 118.882 96.0246C120.795 96.0246 122.352 97.5763 122.352 99.4883C122.352 101.4 120.795 102.952 118.882 102.952Z" fill="#A325C0"/>
<path d="M105.307 110.826C104.203 110.826 103.153 111.033 102.174 111.388L94.9602 98.345C94.9602 98.345 94.3674 96.9374 91.2687 96.9374H66.3926V101.9H89.7122C90.5941 101.9 91.4133 102.376 91.8422 103.144L98.1167 114.333C96.9119 115.875 96.1891 117.806 96.1891 119.911C96.1891 124.931 100.271 129 105.307 129C110.343 129 114.425 124.931 114.425 119.911C114.425 114.89 110.343 110.821 105.307 110.821V110.826ZM105.307 123.374C103.389 123.374 101.837 121.823 101.837 119.911C101.837 117.999 103.394 116.447 105.307 116.447C107.22 116.447 108.777 117.999 108.777 119.911C108.777 121.823 107.22 123.374 105.307 123.374Z" fill="#FF9600"/>
<path d="M118.882 20.5616C113.846 20.5616 109.765 24.6307 109.765 29.651C109.765 31.3469 110.237 32.9274 111.046 34.2822L105.654 39.4466C105.119 39.9558 104.411 40.2441 103.668 40.2441L78.2043 40.2537C78.2043 40.2537 82.5464 42.9872 84.3053 45.2115H105.543C106.203 45.2115 106.839 44.9617 107.321 44.5101L114.613 37.6787C115.885 38.3561 117.34 38.7404 118.882 38.7404C123.918 38.7404 128 34.6713 128 29.651C128 24.6307 123.918 20.5616 118.882 20.5616ZM118.882 33.11C116.964 33.11 115.413 31.5583 115.413 29.6462C115.413 27.7342 116.969 26.1825 118.882 26.1825C120.796 26.1825 122.352 27.7342 122.352 29.6462C122.352 31.5583 120.796 33.11 118.882 33.11Z" fill="#00D49B"/>
<path d="M105.307 0C100.271 0 96.1891 4.06908 96.1891 9.08938C96.1891 11.1936 96.9119 13.1248 98.1167 14.667L91.8422 25.8557C91.4085 26.6244 90.5941 27.1 89.7122 27.1H66.3926V32.0626H91.2687C94.3674 32.0626 94.9602 30.655 94.9602 30.655L102.174 17.6119C103.153 17.9674 104.203 18.174 105.307 18.174C110.343 18.174 114.425 14.1049 114.425 9.08458C114.425 4.06428 110.343 0 105.307 0ZM105.307 12.5531C103.389 12.5531 101.837 11.0014 101.837 9.08938C101.837 7.17734 103.394 5.62561 105.307 5.62561C107.22 5.62561 108.777 7.17734 108.777 9.08938C108.777 11.0014 107.22 12.5531 105.307 12.5531Z" fill="#00A7FF"/>
<path d="M66.3926 36.7755C77.7078 36.7755 86.0931 46.2732 87.4906 49.3527C88.3677 51.2887 92.3482 57.217 88.6038 58.0625C85.7075 58.7159 85.3847 55.574 84.3437 53.7292C74.8501 36.9196 50.345 37.5057 42.6393 55.3914C36.2636 70.1929 46.0512 85.4171 61.5687 87.6078C63.0867 87.824 64.6143 87.1947 65.7757 88.6215C65.9348 88.8185 66.3878 89.5871 66.3878 89.7505V125.973C66.3878 126.747 65.0818 127.785 64.3975 128.082H52.2052C48.6342 126.459 50.8317 121.097 50.1812 117.946C45.1886 116.543 40.3261 114.655 35.8684 111.989C35.1938 111.921 31.1024 116.961 29.859 117.576C28.0904 118.45 27.2663 117.792 25.9556 116.673C20.5726 112.09 16.0138 105.868 10.6549 101.165C8.79957 98.1817 15.2186 94.8716 16.3511 92.5176C13.662 88.0834 11.744 83.2313 10.3802 78.2398C7.15626 77.572 0.645664 80.0557 0.202307 75.3621C-0.45309 68.3866 0.693855 60.3781 0.236041 53.292C0.785418 49.4007 7.68154 51.4329 10.3802 50.8756C11.7537 45.8841 13.6765 41.0464 16.3511 36.6026C16.4812 35.243 7.71528 30.3476 11.0308 27.5804L27.0977 11.602C27.8784 11.0543 28.8567 11.0735 29.7193 11.4482C31.0445 12.0247 35.1504 17.1988 35.8733 17.1315C40.3406 14.4748 45.203 12.6156 50.1908 11.184C50.8896 7.94123 48.321 1.4797 53.0774 1.03772C55.4822 0.811929 61.7036 0.744671 64.012 1.07135C64.9324 1.20106 66.3974 2.19551 66.3974 3.15634V36.7755H66.3926ZM61.4193 6.00998H55.1978V13.8263C55.1978 15.6855 49.9932 16.3676 48.533 16.8577C43.9019 18.419 39.9213 20.5905 35.6419 22.8772C33.3529 23.1751 30.2156 18.5151 28.4518 17.1795L16.621 28.9544C16.38 29.1658 16.3463 29.2907 16.4957 29.579C17.1655 30.8761 20.6401 33.1964 21.6136 34.6665C22.9774 36.7323 20.2497 39.5763 19.2811 41.522C17.898 44.2939 16.7993 47.0467 15.8258 49.9868C15.474 51.0533 14.6741 55.8815 13.2813 55.8815H5.19489V73.2483H13.0307C13.6187 73.2483 14.3319 74.1611 14.5729 74.6799C15.7535 77.1829 16.3174 81.031 17.5125 83.9135C17.9896 85.0616 18.6787 86.5317 19.2377 87.6511C20.2016 89.5775 22.9918 92.3735 21.6136 94.4633C20.6449 95.9333 17.1703 98.2537 16.4957 99.5508C16.3463 99.8391 16.3752 99.964 16.621 100.175L28.4518 111.95C30.2156 110.605 33.3143 106.012 35.6419 106.253C40.1382 108.756 44.3597 110.922 49.28 112.517C50.5233 112.921 55.193 113.545 55.193 115.304V123.12H61.4145V92.6041C44.5814 90.8122 32.8661 75.3477 36.4082 58.6102C38.8611 47.0275 49.092 37.6835 61 36.7419L61.4096 36.4104V6.00998H61.4193Z" fill="url(#paint0_linear_110_3192)"/>
<path d="M127.595 63.3231C127.523 64.111 127.701 65.043 127.595 65.802C126.4 74.5071 113.533 75.6649 111.147 67.0703C108.719 66.5274 101.259 68.55 101.215 64.6923C101.167 60.5655 108.617 62.5592 111.143 62.05C114.049 53.5035 125.773 54.7045 127.595 63.3231ZM122.607 64.577C122.607 62.6649 121.051 61.1132 119.138 61.1132C117.224 61.1132 115.668 62.6649 115.668 64.577C115.668 66.489 117.224 68.0407 119.138 68.0407C121.051 68.0407 122.607 66.489 122.607 64.577Z" fill="url(#paint1_linear_110_3192)"/>
<path d="M62.3637 45.7832C64.0697 45.6679 66.2816 45.8601 66.378 48.0844C66.5033 50.9861 62.9806 50.6113 61.1204 50.9909C48.6293 53.5226 45.8198 70.337 56.9374 76.6016C65.2744 81.2952 75.6211 76.6592 77.515 67.3441C77.8908 65.5041 77.486 62.2181 80.2233 62.098C84.4352 61.9154 82.3292 69.112 81.5052 71.3219C75.9728 86.2242 55.0676 87.6655 47.357 73.7479C40.7549 61.8337 48.7353 46.72 62.3637 45.7832Z" fill="url(#paint2_linear_110_3192)"/>
<path d="M89.5146 67.0366C90.8933 67.0366 92.0109 65.9225 92.0109 64.5481C92.0109 63.1737 90.8933 62.0596 89.5146 62.0596C88.1359 62.0596 87.0183 63.1737 87.0183 64.5481C87.0183 65.9225 88.1359 67.0366 89.5146 67.0366Z" fill="url(#paint3_linear_110_3192)"/>
<path d="M50.1667 28.1378C52.2678 27.8975 53.7762 30.4485 52.4317 32.154C49.786 33.8018 46.856 34.9019 44.2778 36.6747C35.6661 42.5933 30.9723 51.6827 29.8301 61.9635C29.6277 63.7699 30.3651 66.6091 27.6471 66.9982C24.5243 67.445 24.7412 63.8179 24.852 61.7137C25.4014 51.6683 31.165 40.8638 38.9141 34.5512C41.0875 32.7785 47.5644 28.4404 50.1667 28.1378Z" fill="url(#paint4_linear_110_3192)"/>
<path d="M77.708 88.8665C79.0734 88.8665 80.1802 87.7631 80.1802 86.402C80.1802 85.0409 79.0734 83.9375 77.708 83.9375C76.3427 83.9375 75.2358 85.0409 75.2358 86.402C75.2358 87.7631 76.3427 88.8665 77.708 88.8665Z" fill="#A325C0"/>
</g>
<defs>
<linearGradient id="paint0_linear_110_3192" x1="-9.48687e-05" y1="64.4616" x2="90.1845" y2="64.4616" gradientUnits="userSpaceOnUse">
<stop stop-color="#2612E0"/>
<stop offset="0.14" stop-color="#2510D8"/>
<stop offset="0.36" stop-color="#230DC3"/>
<stop offset="0.62" stop-color="#1F08A0"/>
<stop offset="0.91" stop-color="#1B0271"/>
<stop offset="1" stop-color="#1A0062"/>
</linearGradient>
<linearGradient id="paint1_linear_110_3192" x1="101.215" y1="64.5866" x2="127.629" y2="64.5866" gradientUnits="userSpaceOnUse">
<stop stop-color="#2612E0"/>
<stop offset="0.14" stop-color="#2510D8"/>
<stop offset="0.36" stop-color="#230DC3"/>
<stop offset="0.62" stop-color="#1F08A0"/>
<stop offset="0.91" stop-color="#1B0271"/>
<stop offset="1" stop-color="#1A0062"/>
</linearGradient>
<linearGradient id="paint2_linear_110_3192" x1="45.0005" y1="64.5721" x2="82.7629" y2="64.5721" gradientUnits="userSpaceOnUse">
<stop stop-color="#2612E0"/>
<stop offset="0.14" stop-color="#2510D8"/>
<stop offset="0.36" stop-color="#230DC3"/>
<stop offset="0.62" stop-color="#1F08A0"/>
<stop offset="0.91" stop-color="#1B0271"/>
<stop offset="1" stop-color="#1A0062"/>
</linearGradient>
<linearGradient id="paint3_linear_110_3192" x1="87.0183" y1="64.5481" x2="92.0109" y2="64.5481" gradientUnits="userSpaceOnUse">
<stop stop-color="#2612E0"/>
<stop offset="0.14" stop-color="#2510D8"/>
<stop offset="0.36" stop-color="#230DC3"/>
<stop offset="0.62" stop-color="#1F08A0"/>
<stop offset="0.91" stop-color="#1B0271"/>
<stop offset="1" stop-color="#1A0062"/>
</linearGradient>
<linearGradient id="paint4_linear_110_3192" x1="24.7942" y1="47.58" x2="52.9377" y2="47.58" gradientUnits="userSpaceOnUse">
<stop stop-color="#2612E0"/>
<stop offset="0.14" stop-color="#2510D8"/>
<stop offset="0.36" stop-color="#230DC3"/>
<stop offset="0.62" stop-color="#1F08A0"/>
<stop offset="0.91" stop-color="#1B0271"/>
<stop offset="1" stop-color="#1A0062"/>
</linearGradient>
<clipPath id="clip0_110_3192">
<rect width="128" height="129" fill="white"/>
</clipPath>
</defs>
</svg>
